<?xml version="1.0" standalone="no"?>
<!DOCTYPE svg PUBLIC "-//W3C//DTD SVG 20010904//EN"
 "http://www.w3.org/TR/2001/REC-SVG-20010904/DTD/svg10.dtd">
<svg version="1.0" xmlns="http://www.w3.org/2000/svg"
 width="593.000000pt" height="593.000000pt" viewBox="0 0 593.000000 593.000000"
 preserveAspectRatio="xMidYMid meet">

<g transform="translate(0.000000,593.000000) scale(0.100000,-0.100000)"
fill="#000000" stroke="none">
<path d="M3021 5691 c-10 -6 -14 -48 -17 -167 -4 -182 -11 -251 -28 -264 -60
-48 -85 -74 -96 -100 -13 -31 -34 -37 -75 -21 -53 21 -166 -53 -210 -139 -8
-16 -22 -30 -29 -30 -8 0 -28 -16 -45 -35 -23 -26 -31 -45 -31 -73 0 -21 -5
-43 -11 -49 -7 -7 -10 -46 -7 -108 3 -88 5 -98 27 -117 24 -19 24 -20 8 -51
-9 -18 -20 -52 -23 -75 -4 -27 -13 -46 -23 -48 -9 -3 -30 -12 -47 -20 -30 -15
-32 -14 -60 14 -16 15 -42 45 -57 65 -15 20 -39 40 -52 43 -13 3 -33 21 -44
40 -32 53 -71 62 -172 38 -22 -5 -34 2 -72 40 -24 25 -50 46 -56 46 -5 0 -15
19 -22 43 -11 41 -39 167 -39 177 0 3 33 5 72 5 83 0 128 18 219 86 102 77
244 127 321 114 49 -9 48 5 0 38 -46 30 -103 47 -132 40 -15 -4 -20 0 -20 16
0 22 64 76 113 93 27 10 34 22 19 32 -13 8 -162 -14 -214 -31 -26 -8 -90 -43
-143 -78 -109 -71 -172 -94 -211 -76 -14 6 -34 11 -45 11 -11 0 -27 7 -35 15
-44 43 -110 -18 -70 -64 12 -14 106 -367 106 -399 0 -7 -16 -28 -35 -46 -19
-19 -35 -42 -35 -54 0 -24 -40 -52 -75 -52 -62 0 -115 -55 -115 -118 0 -16 -7
-35 -15 -42 -11 -9 -15 -33 -14 -94 1 -44 4 -91 7 -102 4 -12 29 -40 57 -63
43 -35 49 -45 47 -72 -2 -17 4 -46 13 -65 9 -19 13 -40 9 -46 -4 -7 -7 -45 -5
-85 l2 -73 -35 -16 c-45 -22 -63 -55 -48 -89 25 -55 -19 -12 -73 71 -22 32
-66 94 -98 138 l-60 78 1 101 c0 109 -7 127 -52 127 -38 0 -68 -44 -59 -89 8
-41 7 -48 -3 -111 -5 -35 -23 -65 -78 -135 -78 -98 -126 -171 -149 -225 -8
-19 -24 -44 -36 -54 -15 -14 -21 -31 -21 -62 0 -37 5 -46 41 -77 l42 -34 -2
-133 c0 -73 -3 -135 -5 -137 -2 -3 -13 1 -24 8 -17 10 -24 10 -45 -4 -25 -16
-26 -16 -45 17 -13 23 -31 36 -51 41 -68 15 -114 -16 -127 -85 -4 -17 -20 -40
-40 -55 -44 -33 -47 -83 -9 -121 25 -25 26 -44 1 -44 -8 0 -21 -12 -31 -26
-16 -25 -16 -28 1 -66 16 -36 16 -41 3 -52 -9 -6 -21 -22 -28 -35 -9 -17 -16
-20 -24 -12 -18 18 -75 13 -96 -8 -30 -30 -36 -84 -16 -136 16 -44 16 -46 -4
-71 -12 -15 -21 -37 -21 -50 0 -24 25 -56 51 -67 10 -4 7 -12 -14 -27 -22 -18
-27 -30 -27 -65 0 -42 -2 -45 -42 -63 -69 -31 -82 -51 -75 -123 4 -44 17 -85
47 -145 34 -69 40 -87 30 -99 -7 -8 -18 -15 -26 -15 -16 0 -34 -31 -34 -60 0
-19 27 -37 83 -54 11 -4 17 -16 17 -35 0 -21 7 -35 25 -47 18 -12 26 -28 31
-65 8 -56 19 -69 58 -66 35 3 41 -9 56 -98 9 -51 9 -78 1 -98 -6 -16 -11 -44
-11 -63 0 -33 2 -35 28 -32 24 3 27 7 25 38 -5 118 -3 163 13 238 6 29 29 28
49 -2 16 -24 27 -104 44 -318 12 -143 31 -206 92 -297 63 -95 200 -186 339
-227 66 -19 212 -26 310 -16 80 9 87 8 127 -15 28 -17 49 -22 67 -17 19 4 34
-1 57 -21 19 -16 40 -25 51 -22 27 8 52 -34 44 -76 -7 -35 14 -77 39 -77 22 0
45 41 45 80 0 49 12 64 46 58 25 -5 601 -151 862 -220 l84 -22 81 21 c45 12
143 38 217 58 74 21 173 48 220 61 47 12 117 32 155 43 114 31 122 32 139 15
9 -8 16 -31 16 -49 0 -31 21 -65 39 -65 20 0 41 40 41 76 0 54 23 84 64 84 20
0 40 8 51 20 14 15 31 20 71 20 40 0 59 5 81 23 25 21 82 39 123 39 8 0 58 -5
110 -12 257 -31 477 36 623 189 102 107 123 172 147 471 16 195 34 244 74 211
13 -11 28 -116 24 -171 -6 -105 -4 -115 26 -118 l28 -4 -6 49 c-13 89 -11 128
10 232 4 20 9 22 39 17 39 -8 55 11 55 63 0 20 10 41 30 61 17 17 30 41 30 54
0 18 11 29 48 47 61 31 66 57 18 94 -20 15 -36 32 -36 37 0 5 18 47 41 92 42
86 56 146 45 190 -6 26 -65 70 -101 78 -16 3 -19 10 -17 40 4 44 -10 74 -39
83 -21 7 -21 8 10 32 35 27 41 65 15 94 -14 16 -14 20 0 48 23 43 20 103 -6
136 -19 24 -26 27 -69 23 -45 -5 -49 -3 -60 24 -6 16 -19 33 -28 38 -15 8 -15
12 2 40 25 47 22 76 -13 102 -37 27 -37 33 -1 54 60 36 48 111 -30 192 -54 55
-88 57 -135 6 -33 -37 -64 -41 -64 -10 0 23 -38 39 -75 32 -19 -4 -36 -2 -39
3 -3 5 -7 76 -7 157 -1 144 -1 148 22 166 13 10 30 23 37 28 21 18 15 85 -11
117 -13 15 -31 47 -40 70 -17 44 -50 93 -155 231 -34 46 -60 88 -56 94 4 5 1
27 -6 49 -10 31 -10 44 0 68 26 63 -27 119 -85 93 -30 -14 -42 -56 -27 -95 7
-19 8 -37 1 -53 -5 -14 -9 -36 -9 -50 0 -16 -32 -66 -90 -140 -50 -64 -97
-129 -105 -144 -10 -19 -20 -27 -30 -24 -8 4 -15 10 -15 14 0 4 -16 15 -35 24
l-35 17 2 102 c1 56 5 108 11 115 5 7 7 28 4 47 -5 32 -1 38 46 81 l52 47 -1
94 c-1 67 -6 98 -16 111 -9 9 -18 35 -21 57 -7 48 -63 105 -101 105 -21 0 -27
7 -37 41 -18 59 -52 82 -112 76 -30 -2 -56 -12 -70 -26 -31 -28 -69 -28 -82 2
-6 12 -25 29 -42 37 -38 17 -53 56 -53 137 0 52 0 52 28 47 17 -3 53 4 96 20
87 33 133 33 177 1 119 -87 174 -105 247 -86 53 15 54 27 2 35 -36 6 -110 56
-110 76 0 4 24 10 54 13 57 6 140 50 133 71 -3 6 -11 9 -18 7 -8 -2 -35 -6
-60 -8 -54 -6 -86 8 -154 67 -26 22 -63 47 -82 55 -50 21 -143 19 -205 -5 -81
-30 -122 -26 -129 15 -3 15 -12 20 -38 20 -42 0 -60 -23 -44 -57 7 -13 17 -63
23 -113 5 -49 16 -132 23 -183 l13 -92 -24 -23 c-13 -12 -34 -42 -46 -67 -17
-36 -28 -46 -58 -55 -44 -12 -95 -59 -123 -112 -10 -21 -20 -40 -21 -41 -2 -2
-19 2 -38 9 l-36 13 0 62 c0 60 1 63 38 92 l37 30 4 91 c2 71 -1 97 -13 116
-9 13 -16 37 -16 52 0 15 -8 40 -18 54 -37 56 -95 119 -108 119 -8 0 -14 6
-14 14 0 8 -12 28 -26 45 -25 30 -29 31 -105 31 -66 0 -82 3 -99 20 -11 11
-20 26 -20 34 0 8 -14 26 -31 41 l-32 26 7 76 c3 42 8 78 11 81 2 3 12 -1 20
-8 23 -19 119 -16 189 5 43 12 81 16 135 13 71 -4 81 -8 154 -56 91 -59 128
-72 213 -72 48 0 74 6 122 31 34 17 62 34 62 39 0 5 -31 6 -70 3 -87 -7 -148
9 -190 50 -30 29 -30 32 -14 44 10 7 36 13 58 13 l40 0 -39 41 c-55 56 -108
91 -187 123 -84 33 -192 35 -286 6 -35 -11 -79 -20 -98 -20 -38 0 -84 25 -84
46 0 26 -51 42 -79 25z m39 -21 c0 -5 -7 -10 -15 -10 -8 0 -15 5 -15 10 0 6 7
10 15 10 8 0 15 -4 15 -10z m484 -54 c20 -8 36 -20 36 -25 0 -6 -3 -10 -7 -9
-5 1 -27 -7 -50 -19 -38 -19 -43 -19 -58 -4 -11 11 -18 13 -23 5 -4 -6 -14
-13 -22 -16 -11 -4 -7 -9 13 -17 31 -12 34 -23 11 -45 -16 -17 -32 -21 -106
-31 -41 -5 -48 -3 -58 15 -12 22 -6 40 13 40 7 0 23 9 36 19 19 15 22 21 13
37 -6 10 -12 13 -12 7 0 -21 -20 -15 -20 6 0 11 -6 21 -12 24 -7 2 7 11 32 20
53 20 158 16 214 -7z m-491 -36 c-7 -28 -13 -25 -13 6 0 14 4 23 9 20 5 -3 7
-15 4 -26z m206 -15 c-22 -37 -46 -55 -73 -55 -12 0 -16 10 -16 39 0 42 2 43
87 49 l22 2 -20 -35z m-224 -252 c-3 -23 -10 -45 -14 -47 -8 -5 -3 111 7 134
9 23 15 -37 7 -87z m-740 -33 c7 -12 -41 -86 -62 -94 -12 -5 -14 -1 -8 21 6
27 5 27 -19 -7 -14 -19 -34 -44 -44 -55 -11 -11 -22 -28 -25 -37 -4 -10 -12
-18 -18 -18 -9 0 -9 3 0 14 11 13 6 46 -7 46 -3 0 -13 -7 -22 -15 -14 -13 -18
-12 -33 5 -15 18 -14 21 28 56 25 20 77 49 117 64 86 33 85 33 93 20z m745
-75 c19 -22 3 -74 -27 -86 -34 -13 -36 -12 -55 21 -12 21 -22 28 -35 24 -11
-4 -5 6 15 25 35 34 81 41 102 16z m-1298 -67 c-6 -6 -15 -8 -19 -4 -4 4 -1
11 7 16 19 12 27 3 12 -12z m562 7 c-2 -11 -101 -64 -121 -65 -18 0 -16 31 3
58 14 20 23 23 67 20 29 -2 51 -7 51 -13z m-305 -80 c-20 -19 -105 -48 -86
-29 3 4 -1 20 -9 35 -16 32 -19 30 51 46 34 7 42 6 54 -10 12 -17 11 -22 -10
-42z m1791 55 c0 -5 -7 -10 -16 -10 -8 0 -12 5 -9 10 3 6 10 10 16 10 5 0 9
-4 9 -10z m-1037 -37 c-34 -56 -73 -71 -73 -29 0 29 33 56 67 56 23 0 23 -1 6
-27z m551 3 c8 -34 -2 -56 -28 -56 -15 0 -22 7 -23 22 -1 13 -9 28 -18 34 -19
14 -6 22 36 23 20 1 28 -5 33 -23z m843 1 c15 -15 14 -17 -10 -26 -15 -6 -27
-17 -27 -26 0 -9 -9 -15 -22 -15 -20 -1 -21 -2 -6 -11 24 -14 8 -51 -26 -60
-21 -6 -29 -3 -37 14 -10 17 -8 24 10 39 21 16 21 45 0 33 -5 -4 -9 3 -9 14 0
15 -6 21 -21 21 -15 0 -19 -5 -14 -19 7 -24 -22 -58 -57 -67 -21 -5 -28 -2
-28 9 0 8 -2 21 -5 29 -8 22 9 38 71 64 68 28 153 29 181 1z m-1098 -26 c22
-1 23 -3 17 -50 l-6 -49 54 -16 c30 -9 75 -16 100 -16 l46 0 -6 -42 c-4 -24
-10 -47 -14 -52 -5 -4 -33 -8 -64 -7 -52 0 -70 -9 -46 -24 35 -22 -24 -33 -80
-15 -20 6 -21 8 -5 9 29 2 4 21 -34 26 -28 3 -31 1 -26 -16 6 -17 1 -19 -34
-19 -21 0 -47 -3 -57 -7 -12 -4 -15 -3 -10 6 6 10 -4 12 -40 11 -68 -2 -74 -1
-71 11 1 6 -4 14 -11 16 -10 4 -13 -2 -10 -18 2 -19 11 -25 38 -30 31 -4 28
-6 -28 -13 -35 -4 -65 -6 -67 -4 -2 2 -8 42 -14 88 -5 47 -12 95 -16 107 -6
17 -1 25 24 37 42 22 71 21 71 -4 0 -11 -6 -20 -13 -20 -8 0 -22 -9 -32 -20
-18 -20 -18 -21 -1 -38 12 -11 20 -13 23 -6 2 6 15 9 30 6 17 -3 24 -1 19 6
-6 9 26 19 119 34 21 4 22 12 11 72 -6 33 -5 35 26 38 18 2 44 3 58 2 14 -1
36 -2 49 -3z m92 -11 c5 0 9 -4 9 -8 0 -5 -13 -7 -30 -4 -16 2 -27 9 -24 14 3
5 13 7 21 4 8 -3 19 -6 24 -6z m1097 -32 c18 -18 15 -25 -15 -31 -38 -7 -45 0
-25 23 19 23 24 24 40 8z m-937 -19 c24 -12 16 -29 -15 -29 -12 0 -27 -5 -34
-12 -9 -9 -12 -6 -12 13 0 40 21 50 61 28z m-413 -26 c-10 -2 -26 -2 -35 0
-10 3 -2 5 17 5 19 0 27 -2 18 -5z m240 0 c-10 -2 -28 -2 -40 0 -13 2 -5 4 17
4 22 1 32 -1 23 -4z m856 -7 c-4 -12 -15 -13 -42 -7 -2 1 0 6 3 11 10 16 45
12 39 -4z m200 -12 c3 -8 2 -12 -4 -9 -6 3 -10 10 -10 16 0 14 7 11 14 -7z
m-1621 -29 c-3 -9 -8 -14 -10 -11 -3 3 -2 9 2 15 9 16 15 13 8 -4z m-725 -133
c11 -50 17 -94 12 -97 -4 -2 -12 21 -19 53 -7 31 -17 73 -22 93 -12 47 -12 66
0 54 5 -6 18 -52 29 -103z m692 82 c0 -8 -5 -12 -10 -9 -6 4 -8 11 -5 16 9 14
15 11 15 -7z m772 -25 c-3 -22 -7 -27 -13 -18 -13 21 -11 49 4 49 9 0 12 -10
9 -31z m526 -74 l0 -50 -9 40 c-4 22 -8 56 -7 75 0 32 1 33 8 10 4 -14 8 -47
8 -75z m-1221 5 c-1 -60 -20 -89 -31 -48 -6 24 14 108 25 108 4 0 7 -27 6 -60z
m656 23 c-7 -2 -21 -2 -30 0 -10 3 -4 5 12 5 17 0 24 -2 18 -5z m-703 -29 c0
-6 -3 -14 -7 -18 -5 -4 -13 -29 -19 -54 -10 -45 -11 -46 -21 -22 -6 14 -13 44
-16 67 l-5 41 34 -1 c19 -1 34 -7 34 -13z m196 -89 c3 -13 4 -30 1 -37 -3 -8
-6 -5 -6 6 -1 11 -8 28 -18 38 -15 17 -15 18 0 18 9 0 19 -11 23 -25z m524 21
c0 -2 -3 -11 -6 -20 -9 -23 -34 -20 -34 4 0 13 7 20 20 20 11 0 20 -2 20 -4z
m589 -45 c10 -7 12 -21 7 -54 -6 -41 -10 -46 -38 -53 -25 -5 -34 -2 -44 12 -8
11 -19 25 -25 33 -10 11 -6 19 19 42 33 30 56 35 81 20z m-1975 -23 c8 -13 5
-26 -10 -55 -27 -52 -55 -55 -83 -7 l-22 37 23 24 c26 28 74 28 92 1z m2247
-23 c3 -19 0 -36 -9 -47 -18 -22 -52 -24 -52 -3 0 8 -9 24 -20 35 -19 19 -19
19 3 35 35 25 71 16 78 -20z m-950 -11 c48 -24 59 -65 59 -216 0 -229 11 -286
110 -563 41 -114 126 -250 221 -350 44 -46 54 -78 45 -140 -7 -45 -30 -62 -42
-30 -4 9 -19 15 -35 15 -21 0 -29 5 -29 18 0 44 -24 91 -69 139 -97 103 -149
221 -206 468 -13 55 -29 114 -35 130 -7 17 -16 89 -20 160 -10 163 -23 216
-66 262 l-34 36 -82 -7 c-46 -4 -130 -9 -187 -12 -59 -3 -116 -11 -131 -19
-60 -31 -94 -85 -144 -230 -98 -284 -179 -408 -354 -545 -40 -31 -61 -58 -83
-103 -44 -93 -35 -171 23 -211 29 -21 106 -20 168 0 45 15 50 15 86 -4 l38
-19 -32 -17 c-35 -18 -113 -21 -143 -6 -19 11 -24 5 -20 -26 2 -21 -31 -25
-45 -7 -7 10 -14 21 -14 24 0 4 -31 10 -70 13 -95 10 -100 16 -100 134 0 81 4
105 24 147 24 51 85 115 168 174 25 18 72 62 103 97 95 108 200 358 219 525 8
63 35 115 68 129 28 11 204 31 221 25 7 -3 62 2 122 9 153 19 230 19 266 0z
m-1047 -33 c12 -13 15 -27 11 -40 -5 -17 -12 -20 -33 -14 -15 3 -29 10 -30 15
-2 4 -10 14 -17 22 -10 10 -11 16 -2 25 17 17 52 13 71 -8z m1192 -77 c15 -19
25 -37 22 -39 -4 -5 -43 35 -93 95 l-20 24 33 -23 c17 -12 44 -38 58 -57z
m-1448 19 c2 -8 -5 -13 -19 -13 -49 0 -97 -22 -102 -47 -2 -13 1 -27 7 -31 6
-3 82 -7 168 -7 168 0 164 -1 158 48 -1 15 5 18 32 15 30 -3 33 -6 30 -33 -4
-34 -13 -46 -19 -27 -3 6 -9 12 -15 12 -7 0 -9 -19 -5 -54 l5 -55 -71 5 c-64
5 -70 3 -53 -9 11 -8 15 -16 9 -20 -6 -4 -74 -10 -152 -13 l-141 -7 -1 49 0
49 -19 -40 c-17 -38 -60 -77 -60 -55 0 5 -4 10 -10 10 -5 0 -10 -9 -10 -19 0
-17 -18 -31 -41 -31 -5 0 -9 24 -9 54 l0 53 38 7 c42 7 141 85 109 86 -10 0
-15 5 -12 11 4 6 12 8 19 6 7 -3 13 4 13 15 2 27 4 28 65 43 62 15 80 15 86
-2z m122 8 c0 -5 -21 -11 -46 -13 -44 -3 -61 2 -47 16 10 9 93 7 93 -3z m1652
-13 c-7 -7 -12 -23 -12 -37 0 -24 0 -24 -18 -6 -17 19 -17 20 8 41 25 23 44
24 22 2z m198 7 c-7 -9 -29 -15 -52 -15 -35 0 -39 2 -28 15 7 9 29 15 52 15
35 0 39 -2 28 -15z m348 -34 c6 -19 -30 -26 -43 -8 -17 24 -74 34 -86 16 -6
-10 -9 -7 -9 12 l0 27 67 -18 c37 -9 69 -22 71 -29z m-2563 17 c-7 -23 -32
-48 -47 -48 -18 0 -7 30 18 49 34 26 37 26 29 -1z m1363 -21 c-22 -41 -112
-156 -123 -157 -5 0 -10 12 -10 28 0 15 -4 45 -8 67 -6 38 -4 42 24 59 26 15
117 37 127 30 2 -1 -2 -13 -10 -27z m1017 13 c4 -6 -17 -10 -55 -10 -38 0 -59
4 -55 10 3 6 28 10 55 10 27 0 52 -4 55 -10z m-2010 -20 c14 -6 1 -9 -43 -9
-40 -1 -61 3 -57 9 7 12 72 12 100 0z m1765 -1 c0 -6 -8 -8 -19 -4 -16 5 -18
2 -14 -15 3 -13 11 -19 19 -16 8 3 14 1 14 -5 0 -11 8 -11 104 10 34 8 68 8
115 0 36 -5 81 -7 100 -4 l34 6 -6 -44 c-5 -36 -3 -46 9 -51 25 -10 34 2 34
45 0 21 4 39 9 39 23 0 29 -81 7 -99 -13 -11 -71 -10 -171 4 -62 9 -137 -9
-129 -30 7 -17 -16 -23 -98 -27 -54 -3 -58 -2 -62 22 -11 55 -18 159 -11 169
8 14 65 14 65 0z m-1010 -14 c0 -8 -14 -22 -32 -31 -49 -26 -81 -60 -83 -91
-1 -15 -10 -55 -19 -88 -9 -33 -16 -76 -14 -95 2 -27 -1 -35 -16 -38 -17 -4
-18 1 -13 60 8 91 22 157 35 170 7 7 12 19 12 28 0 29 83 96 123 99 4 1 7 -6
7 -14z m333 0 c20 -19 33 -113 18 -128 -8 -8 -11 -6 -11 9 0 10 -9 34 -20 52
-21 34 -27 82 -11 82 5 0 16 -7 24 -15z m-643 -73 c0 -13 -12 -22 -22 -16 -10
6 -1 24 13 24 5 0 9 -4 9 -8z m-50 -37 c0 -8 -4 -15 -9 -15 -5 0 -11 7 -15 15
-3 9 0 15 9 15 8 0 15 -7 15 -15z m1223 -43 c-7 -49 -19 -54 -28 -11 -5 23 -3
34 12 44 10 7 19 13 20 11 1 -1 -1 -20 -4 -44z m31 13 c-4 -8 -8 -15 -10 -15
-2 0 -4 7 -4 15 0 8 4 15 10 15 5 0 7 -7 4 -15z m-557 -57 c-3 -8 -6 -5 -6 6
-1 11 2 17 5 13 3 -3 4 -12 1 -19z m408 -26 c-6 -16 -7 -16 -16 0 -5 9 -6 24
-3 33 7 16 8 16 16 0 5 -9 7 -24 3 -33z m645 -7 c0 -8 -4 -15 -10 -15 -5 0
-10 7 -10 15 0 8 5 15 10 15 6 0 10 -7 10 -15z m498 -25 c2 -14 -4 -34 -11
-44 -14 -19 -15 -19 -30 10 -11 21 -12 35 -5 47 14 25 42 17 46 -13z m-2521
14 c-3 -3 -12 -4 -19 -1 -8 3 -5 6 6 6 11 1 17 -2 13 -5z m993 -59 c0 -12 5
-26 12 -33 9 -9 8 -12 -4 -12 -19 0 -28 20 -28 63 0 24 3 28 10 17 5 -8 10
-24 10 -35z m450 -75 c44 -42 70 -89 70 -125 0 -44 -18 -27 -47 45 -22 55 -32
70 -47 68 -23 -3 -44 47 -44 102 l0 35 15 -45 c9 -24 33 -61 53 -80z m551 97
c-10 -9 -11 -8 -5 6 3 10 9 15 12 12 3 -3 0 -11 -7 -18z m-2823 -19 c2 -8 -2
-27 -8 -42 -9 -23 -13 -26 -25 -16 -8 7 -15 22 -15 34 0 40 41 60 48 24z m711
-28 c52 -13 29 -25 -44 -22 -75 4 -91 12 -58 31 17 9 44 7 102 -9z m1980 11
c17 -11 9 -15 -77 -36 -40 -9 -88 -28 -106 -40 -19 -13 -37 -21 -40 -17 -15
14 -2 29 47 56 68 39 147 55 176 37z m-2115 -10 c7 -10 -37 -31 -67 -31 -12
-1 -33 -7 -47 -15 -30 -17 -44 -19 -35 -5 11 17 -5 11 -41 -16 -19 -15 -34
-22 -34 -16 0 16 61 60 106 76 44 16 110 20 118 7z m2263 -7 c27 -9 60 -24 73
-34 24 -19 24 -19 -40 -1 -36 11 -87 22 -114 26 -35 5 -45 9 -35 16 21 13 61
11 116 -7z m503 -45 c0 -30 -19 -47 -39 -34 -7 4 -7 12 -2 23 5 9 12 25 15 35
9 27 26 11 26 -24z m-2294 4 c-10 -10 -19 5 -10 18 6 11 8 11 12 0 2 -7 1 -15
-2 -18z m204 2 c-13 -14 -25 -23 -28 -21 -5 6 31 44 42 45 5 1 -1 -10 -14 -24z
m320 -55 c0 -13 -1 -13 -10 0 -5 8 -10 22 -10 30 0 13 1 13 10 0 5 -8 10 -22
10 -30z m-1580 -4 c0 -15 -7 -26 -20 -29 -11 -3 -20 -4 -20 -3 0 2 5 17 11 34
12 35 29 34 29 -2z m1540 24 c0 -5 -4 -10 -10 -10 -5 0 -10 5 -10 10 0 6 5 10
10 10 6 0 10 -4 10 -10z m1143 -25 c14 -6 15 -10 6 -21 -6 -8 -17 -14 -24 -14
-7 0 -15 -16 -17 -37 -4 -30 1 -47 24 -81 16 -23 35 -57 43 -75 14 -31 14 -31
15 -6 0 32 60 99 88 99 18 0 19 -6 14 -72 -2 -40 -9 -79 -15 -86 -7 -9 -6 -11
6 -6 19 7 22 -3 37 -138 13 -122 13 -188 0 -188 -6 0 -22 7 -35 16 -23 15 -25
15 -31 0 -8 -22 -2 -27 38 -35 26 -5 34 -12 36 -32 4 -38 -15 -79 -37 -79 -36
0 -122 34 -132 51 -5 10 -18 23 -29 29 -18 10 -20 7 -20 -19 0 -26 3 -29 26
-25 18 3 25 1 22 -8 -7 -20 -82 -22 -98 -3 -11 14 -8 21 23 50 57 54 47 88
-19 60 -49 -20 -54 -19 -54 9 0 14 -7 31 -15 40 -8 8 -15 28 -15 45 0 33 -16
42 -23 14 -2 -10 -3 7 -1 37 1 30 6 142 10 248 4 108 11 187 15 180 7 -11 9
-10 9 0 0 8 13 26 30 42 26 24 34 26 67 20 21 -4 46 -11 56 -15z m-2143 -5 c0
-5 8 -6 18 -3 15 6 15 5 3 -10 -7 -9 -17 -15 -21 -12 -12 7 -17 -58 -8 -93 5
-18 24 -44 43 -59 27 -22 35 -35 35 -60 0 -18 5 -33 10 -33 12 0 13 31 1 62
-7 20 -4 30 20 57 16 19 29 45 29 58 0 29 -24 79 -42 87 -7 3 5 4 26 3 34 -2
41 -7 47 -30 5 -18 2 -41 -6 -61 -13 -31 -13 -34 4 -39 16 -4 18 -12 14 -58
-6 -64 -81 -231 -100 -224 -8 2 -13 -4 -13 -15 0 -11 5 -20 10 -20 7 0 8 -31
4 -87 -7 -93 -20 -136 -34 -113 -5 7 -6 19 -3 27 3 7 0 13 -6 13 -6 0 -11 -6
-11 -12 0 -9 -3 -8 -10 2 -8 13 -10 12 -15 -1 -3 -9 -5 -20 -4 -25 5 -26 -4
-41 -35 -58 -37 -20 -66 -16 -66 8 0 21 22 66 32 66 4 0 8 5 8 10 0 7 -6 7
-20 0 -22 -12 -22 -12 -23 105 -1 33 -6 63 -12 67 -5 4 5 8 23 8 35 0 44 22
15 38 -20 12 -20 52 1 112 20 56 20 60 1 60 -12 0 -15 13 -15 60 0 33 4 60 10
60 16 0 12 37 -5 44 -23 9 -18 51 8 64 28 13 87 15 87 2z m1594 -6 c3 -8 2
-12 -4 -9 -6 3 -10 10 -10 16 0 14 7 11 14 -7z m682 -19 c3 -14 10 -25 14 -25
5 0 6 -9 3 -20 -7 -28 -21 -25 -34 8 -6 15 -15 35 -20 45 -7 13 -5 17 11 17
13 0 22 -9 26 -25z m-2221 -5 c8 -13 -3 -50 -15 -50 -12 0 -20 28 -14 45 7 17
20 20 29 5z m2143 -16 c2 -13 -4 -24 -14 -28 -21 -8 -33 9 -26 36 6 25 36 19
40 -8z m-429 -75 c33 -86 42 -150 17 -116 -7 9 -18 17 -23 17 -10 0 -53 170
-46 183 9 16 22 -6 52 -84z m-125 -14 c57 -136 57 -137 53 -141 -4 -4 -81 176
-92 216 -13 44 1 17 39 -75z m1115 59 c21 26 29 19 36 -32 5 -40 2 -56 -15
-87 -18 -32 -20 -42 -10 -61 17 -31 10 -44 -35 -60 -53 -18 -82 -18 -89 2 -8
20 2 54 15 54 5 0 9 7 9 15 0 8 12 21 28 29 24 13 25 15 8 22 -25 10 -45 -4
-68 -46 -19 -36 -58 -60 -58 -36 0 13 94 149 134 194 18 20 21 21 26 7 5 -16
7 -16 19 -1z m-1859 -41 c0 -7 -4 -13 -10 -13 -13 0 -28 32 -22 49 4 12 8 11
18 -4 8 -10 14 -25 14 -32z m-700 27 c0 -5 -5 -10 -11 -10 -5 0 -7 5 -4 10 3
6 8 10 11 10 2 0 4 -4 4 -10z m450 -20 c0 -21 -15 -27 -25 -10 -7 12 2 30 16
30 5 0 9 -9 9 -20z m646 -18 c-9 -8 -26 10 -26 26 1 15 2 15 15 -2 8 -11 13
-21 11 -24z m1016 16 c-7 -7 -12 -8 -12 -2 0 6 3 14 7 17 3 4 9 5 12 2 2 -3
-1 -11 -7 -17z m-2905 -28 c3 0 12 8 19 18 12 15 13 8 14 -50 0 -37 -4 -70
-10 -73 -5 -3 -10 -26 -10 -50 0 -50 -15 -63 -83 -75 -36 -7 -58 2 -37 15 5 3
10 15 10 26 0 10 4 19 9 19 5 0 13 10 17 22 3 12 13 28 20 36 8 7 14 21 14 30
-1 19 -29 -10 -114 -117 -47 -57 -66 -73 -66 -52 0 5 7 14 15 21 8 7 15 17 15
22 0 11 43 76 119 178 47 62 57 71 59 52 2 -12 6 -22 9 -22z m462 -84 c-3 -90
-17 -152 -18 -80 -1 50 10 164 16 164 2 0 3 -38 2 -84z m921 64 c0 -11 -4 -20
-10 -20 -5 0 -10 9 -10 20 0 11 5 20 10 20 6 0 10 -9 10 -20z m435 -62 c57
-67 16 -197 -58 -182 -19 4 -29 1 -33 -10 -8 -21 -57 -21 -89 0 -69 45 -23
186 72 219 47 16 78 8 108 -27z m145 -28 c0 -5 -4 -10 -10 -10 -5 0 -10 5 -10
10 0 6 5 10 10 10 6 0 10 -4 10 -10z m-680 -57 c0 -20 -41 -32 -67 -20 -32 14
-28 33 12 55 16 8 24 7 37 -5 10 -9 18 -22 18 -30z m-894 21 c-3 -9 -6 -18 -6
-20 0 -2 -7 -4 -15 -4 -18 0 -20 26 -2 33 23 10 29 7 23 -9z m624 -54 c-19
-16 -37 -24 -39 -19 -5 16 30 49 53 49 18 -1 16 -4 -14 -30z m2462 -23 c3 -6
4 -15 2 -19 -3 -5 7 -6 21 -2 21 5 27 4 23 -7 -6 -18 -48 -24 -58 -9 -6 9 -16
10 -41 2 -19 -6 -76 -12 -127 -14 -85 -4 -92 -3 -86 14 4 13 0 18 -12 18 -33
0 3 23 48 31 59 11 221 1 230 -14z m-3372 -47 c17 -10 16 -12 -27 -34 -18 -9
-54 -16 -81 -16 -26 0 -74 -5 -106 -11 -64 -11 -80 -7 -50 16 18 13 17 14 -15
15 -44 0 -34 10 26 26 56 15 231 18 253 4z m1295 -27 c-11 -3 -23 -10 -26 -15
-8 -12 -29 -2 -29 13 0 5 17 8 38 8 21 -1 29 -3 17 -6z m672 -45 c-3 -8 -6 -5
-6 6 -1 11 2 17 5 13 3 -3 4 -12 1 -19z m-1042 -8 c3 -11 11 -20 18 -20 7 0 7
-3 2 -9 -12 -11 -78 -22 -73 -13 2 4 10 19 17 35 17 32 27 34 36 7z m2390 -10
c29 -7 29 -8 -10 -9 -37 -2 -63 -6 -152 -26 -26 -6 -33 -4 -33 7 0 30 120 47
195 28z m-287 -42 c14 -14 17 -178 4 -178 -23 0 -40 41 -47 113 -6 71 -5 77
12 77 11 0 24 -5 31 -12z m-2711 -35 c-3 -10 -5 -4 -5 12 0 17 2 24 5 18 2 -7
2 -21 0 -30z m1000 22 c12 -8 31 -31 43 -49 14 -23 26 -33 36 -29 14 5 27 1
94 -31 37 -17 56 -62 39 -92 -10 -20 -10 -27 6 -44 26 -29 35 -25 25 11 -6 21
-6 29 2 27 23 -8 104 -269 95 -305 -3 -11 -5 -8 -6 10 0 15 -8 30 -16 34 -25
9 -27 -2 -8 -36 17 -30 17 -33 1 -45 -24 -18 -23 -39 1 -31 36 11 49 -18 49
-112 1 -48 -1 -96 -4 -105 -7 -23 -24 -23 -24 -2 0 13 -3 14 -15 4 -8 -6 -19
-9 -25 -5 -5 3 -10 -1 -10 -9 0 -24 -20 -30 -35 -10 -10 14 -16 16 -26 7 -12
-9 -14 10 -16 117 -2 113 -7 142 -34 227 -44 138 -106 201 -201 204 -28 1 -34
3 -16 6 39 6 43 29 6 42 -44 16 -48 14 -48 -19 0 -24 -7 -33 -39 -50 -82 -41
-165 -186 -177 -308 -4 -47 -10 -69 -15 -60 -6 9 -9 3 -8 -17 2 -106 -33 -202
-66 -175 -10 8 -11 18 -4 36 15 42 10 49 -16 24 -23 -22 -27 -23 -41 -8 -9 9
-17 33 -18 54 -1 32 3 39 23 44 25 6 42 30 22 30 -6 0 -11 10 -11 22 0 21 -1
21 -13 3 -13 -17 -14 -15 -21 15 -4 23 -1 41 11 59 9 14 20 39 24 56 l7 30 1
-27 c1 -16 5 -28 10 -28 4 0 8 17 7 38 -1 23 -6 36 -14 34 -6 -1 -12 3 -12 10
0 37 96 248 113 248 5 0 6 -13 2 -30 -8 -38 11 -41 25 -4 7 18 7 30 0 39 -7 8
-2 21 15 44 29 41 48 53 102 71 24 7 50 24 58 37 16 24 71 63 90 63 6 0 20 -7
32 -15z m1970 1 c11 -10 -2 -16 -53 -25 -27 -5 -57 -12 -66 -16 -14 -5 -18 -2
-18 14 0 13 9 26 23 31 23 10 103 7 114 -4z m-3337 -5 c20 -6 15 -9 -30 -14
-30 -4 -77 -13 -104 -20 -38 -9 -50 -9 -53 0 -3 7 -12 9 -21 6 -12 -4 -14 -3
-7 5 23 24 160 39 215 23z m2098 -34 c-6 -38 -28 -31 -28 8 0 33 2 36 15 25 9
-7 15 -22 13 -33z m1038 29 c16 -16 18 -54 4 -76 -11 -17 -14 -9 -25 53 -6 40
-2 45 21 23z m-2811 -24 c-15 -74 -15 -74 -32 -60 -15 12 -16 10 -9 -15 9 -37
-10 -73 -30 -56 -18 15 -18 50 0 93 22 53 80 84 71 38z m2642 -19 c-3 -10 -5
-2 -5 17 0 19 2 27 5 18 2 -10 2 -26 0 -35z m-440 5 c-3 -7 -5 -2 -5 12 0 14
2 19 5 13 2 -7 2 -19 0 -25z m-2727 -61 c0 -18 -16 -31 -23 -20 -2 5 -8 26
-12 48 l-7 40 21 -27 c12 -14 21 -33 21 -41z m170 53 c8 -5 12 -11 10 -13 -12
-11 -124 -46 -132 -41 -14 9 -9 43 10 53 21 13 92 14 112 1z m3340 -14 c0 -3
-4 -8 -10 -11 -5 -3 -10 -1 -10 4 0 6 5 11 10 11 6 0 10 -2 10 -4z m-1356 -33
c8 -16 26 -39 40 -53 l27 -24 -23 -13 c-13 -7 -38 -12 -55 -13 -25 0 -33 4
-33 18 0 31 -9 31 -68 2 -56 -28 -78 -28 -67 1 6 17 57 49 77 49 7 0 26 14 41
30 35 37 43 37 61 3z m666 19 c0 -11 -40 -48 -41 -39 -5 24 -3 33 6 39 14 10
35 10 35 0z m642 -20 c-22 -7 -12 -22 16 -23 15 0 21 -3 15 -6 -7 -2 -13 -10
-13 -17 0 -7 -12 -23 -27 -37 l-28 -24 28 -3 c30 -4 37 -22 8 -22 -16 0 -19
-8 -20 -47 -2 -90 -10 -106 -41 -78 -15 13 -20 31 -20 66 0 26 4 51 10 54 5 3
7 19 3 35 -5 28 9 80 29 106 5 7 19 9 31 6 12 -3 16 -7 9 -10z m-2457 -21 c49
-8 50 -8 22 -19 -33 -14 -106 -15 -126 -3 -8 5 -11 16 -7 26 5 13 13 15 34 10
15 -4 50 -10 77 -14z m-855 -5 c0 -3 -4 -8 -10 -11 -5 -3 -10 -1 -10 4 0 6 5
11 10 11 6 0 10 -2 10 -4z m3196 -50 c-13 -103 -24 -118 -25 -35 -1 42 2 79 6
82 18 19 25 3 19 -47z m-2789 12 c-3 -7 -5 -2 -5 12 0 14 2 19 5 13 2 -7 2
-19 0 -25z m-576 -150 c-10 -147 -28 -248 -44 -248 -5 0 -6 12 -3 28 9 46 25
191 32 296 4 70 9 95 16 83 5 -10 5 -71 -1 -159z m1227 165 c-10 -2 -26 -2
-35 0 -10 3 -2 5 17 5 19 0 27 -2 18 -5z m-1093 -23 c-4 -6 -13 -9 -20 -6 -7
2 -16 2 -19 -1 -10 -10 15 -33 35 -33 23 0 25 -18 4 -26 -8 -4 -15 -12 -15
-19 0 -7 -6 -16 -12 -19 -10 -4 -9 -8 2 -17 14 -10 13 -15 -11 -40 -47 -51
-53 -44 -50 60 2 71 24 114 53 107 10 -2 21 0 24 6 3 5 8 7 11 4 3 -2 2 -10
-2 -16z m2280 7 c26 -20 5 -28 -51 -20 l-49 6 30 13 c39 17 47 17 70 1z
m-1256 -16 c40 -4 56 -10 56 -21 0 -16 -7 -16 -84 -4 -42 6 -43 6 -32 -15 8
-14 8 -21 1 -21 -5 0 -10 -7 -10 -15 0 -19 29 -19 50 0 16 14 18 14 23 -4 3
-11 -2 -29 -12 -40 -9 -11 -24 -34 -33 -51 -10 -17 -22 -28 -28 -25 -6 3 -23
0 -38 -7 -27 -14 -28 -14 -24 16 4 31 -28 86 -49 86 -6 0 -26 -17 -44 -37
l-35 -38 0 88 c0 70 3 89 16 94 23 9 63 -14 74 -43 8 -20 14 -24 33 -19 12 4
29 13 37 21 12 12 11 14 -14 14 -24 0 -26 2 -16 14 12 15 49 25 64 18 5 -3 34
-8 65 -11z m821 10 c0 -12 -48 -23 -71 -16 -34 11 -20 25 26 25 25 0 45 -4 45
-9z m-1413 -33 c-3 -8 -6 -5 -6 6 -1 11 2 17 5 13 3 -3 4 -12 1 -19z m1858
-18 c4 -6 -15 -10 -52 -9 -48 1 -53 3 -28 9 44 11 73 11 80 0z m113 -7 c-10
-2 -28 -2 -40 0 -13 2 -5 4 17 4 22 1 32 -1 23 -4z m-378 -24 c30 -12 79 -25
108 -28 55 -7 77 -24 66 -51 -4 -8 -9 -23 -11 -32 -6 -22 -17 -23 -33 -3 -11
13 -16 13 -45 -5 -17 -11 -49 -24 -71 -29 -32 -7 -34 -9 -12 -10 17 -1 34 -11
45 -27 10 -15 28 -37 40 -50 20 -22 15 -43 -7 -29 -15 9 -12 -7 5 -29 23 -31
19 -35 -40 -33 -40 1 -55 5 -55 15 0 8 -6 12 -15 9 -8 -4 -17 -2 -20 3 -4 6 5
10 18 10 22 0 37 16 37 41 0 5 -13 9 -30 9 -26 0 -30 4 -30 28 0 15 5 33 12
40 9 9 7 12 -11 12 -36 0 -59 18 -82 61 l-20 41 22 24 c12 13 29 24 36 24 8 0
16 7 19 15 8 19 9 19 74 -6z m264 -31 c8 -34 -4 -41 -30 -17 -18 16 -21 26
-13 35 14 17 36 8 43 -18z m342 11 c3 -6 2 -14 -2 -19 -11 -10 -104 -1 -104
11 0 18 95 25 106 8z m-2987 -15 c16 -12 21 -23 17 -39 -7 -26 7 -40 46 -43
19 -2 28 2 33 17 3 12 11 21 17 21 6 0 7 -8 3 -17 -3 -10 -11 -39 -16 -65 -14
-64 -33 -79 -48 -37 l-11 32 -19 -22 c-21 -24 -30 -18 -50 34 l-11 30 5 -35
c3 -19 8 -50 11 -69 4 -29 2 -32 -13 -26 -37 15 -53 17 -53 6 0 -6 7 -14 15
-17 8 -4 28 -26 45 -50 26 -38 28 -48 17 -65 -12 -19 -21 -20 -59 -4 -13 5
-18 2 -18 -8 0 -9 5 -19 10 -22 6 -3 10 -11 10 -17 0 -7 -5 -7 -14 1 -8 6 -29
13 -47 14 -61 4 -79 56 -29 85 40 23 43 36 16 69 -36 43 -40 69 -17 92 12 12
27 18 36 15 9 -4 16 0 16 7 1 8 3 21 4 29 1 8 3 25 4 38 1 27 35 62 59 62 10
0 28 -7 41 -16z m1009 -1 c2 -9 -8 -13 -32 -13 -36 0 -56 14 -34 24 22 8 61 2
66 -11z m62 7 c0 -5 -9 -10 -20 -10 -11 0 -20 5 -20 10 0 6 9 10 20 10 11 0
20 -4 20 -10z m1697 -20 c9 -14 10 -27 2 -49 -6 -17 -13 -31 -15 -31 -9 0 -49
25 -56 35 -17 23 20 79 46 69 6 -2 17 -13 23 -24z m598 5 l50 -14 -50 6 c-27
3 -86 7 -130 8 -96 2 -95 2 -95 16 0 15 155 4 225 -16z m-2460 5 c-3 -5 -20
-10 -36 -10 -18 0 -28 4 -24 10 3 6 20 10 36 10 18 0 28 -4 24 -10z m2188 3
c-7 -2 -19 -2 -25 0 -7 3 -2 5 12 5 14 0 19 -2 13 -5z m-2303 -20 c-40 -19
-130 -33 -130 -22 0 12 92 35 145 37 13 0 8 -5 -15 -15z m3541 -3 c10 -6 19
-17 19 -24 0 -7 11 -25 25 -40 25 -27 29 -42 25 -81 -2 -23 -19 -36 -35 -28
-5 4 -7 2 -2 -2 4 -5 0 -16 -9 -26 -20 -23 -11 -53 21 -67 31 -14 33 -51 5
-77 -17 -15 -22 -16 -36 -4 -14 11 -18 11 -21 2 -8 -23 -33 -14 -33 12 0 29
-3 30 -35 9 -23 -15 -25 -15 -25 1 0 10 18 37 40 61 50 54 53 78 9 69 -29 -6
-30 -6 -20 13 17 33 13 37 -13 13 -15 -14 -26 -19 -31 -12 -4 8 -12 8 -28 0
-14 -8 -22 -9 -25 -1 -6 19 -39 52 -46 45 -3 -3 -6 15 -6 40 0 36 -5 50 -19
59 -15 9 -17 15 -9 25 24 29 68 7 68 -34 0 -22 3 -23 38 -17 20 3 42 14 49 23
38 51 58 60 94 41z m-3117 -32 c5 -24 1 -36 -14 -50 -11 -10 -20 -30 -20 -44
0 -13 -7 -41 -17 -62 -25 -57 -28 -15 -3 58 12 34 20 72 18 84 -3 23 8 46 21
46 5 0 11 -14 15 -32z m-44 -8 c0 -6 -7 -27 -15 -47 -8 -19 -15 -45 -15 -57
-1 -42 -47 -71 -73 -44 -27 28 -59 79 -53 86 4 3 16 1 26 -6 31 -19 43 -15 36
12 -8 34 19 56 38 30 14 -18 15 -18 27 9 12 27 29 37 29 17z m1364 -60 c35
-35 49 -37 83 -10 l26 20 -24 1 c-20 1 -21 2 -5 6 12 3 25 -2 33 -12 10 -15
10 -23 -4 -46 -10 -16 -21 -29 -25 -29 -4 0 -8 -5 -8 -11 0 -6 -7 -17 -15 -25
-13 -13 -15 -12 -20 9 -4 14 -24 42 -46 63 -36 35 -50 64 -31 64 4 0 20 -14
36 -30z m794 5 c45 -14 103 -42 138 -67 32 -23 69 -46 80 -53 12 -6 61 -47
108 -91 83 -79 161 -129 246 -159 100 -35 146 -101 135 -192 -6 -49 -9 -55
-45 -73 -53 -27 -64 -25 -35 6 34 37 40 80 18 139 -18 49 -19 50 -140 110
-100 51 -199 115 -223 146 -8 10 -122 103 -156 126 -77 54 -243 88 -322 65
-20 -6 -56 -15 -80 -22 -23 -6 -57 -23 -75 -39 -17 -15 -47 -36 -66 -47 -19
-10 -57 -33 -84 -51 -28 -18 -56 -29 -65 -26 -9 4 -13 2 -9 -4 9 -14 -6 -50
-33 -83 l-21 -25 7 30 6 30 -30 -34 c-28 -32 -30 -33 -37 -12 -4 14 -15 21
-31 21 -32 0 -40 24 -20 55 21 31 30 31 44 0 16 -35 35 -31 55 11 11 23 23 34
31 31 17 -7 150 68 204 114 68 58 148 101 204 109 89 13 114 11 196 -15z m346
-33 c-7 -27 -7 -27 -15 8 -5 23 -4 37 4 42 15 10 21 -16 11 -50z m-2951 19
c63 -30 226 -165 214 -177 -3 -3 -25 10 -50 28 -196 146 -321 160 -476 54 -37
-26 -71 -46 -76 -46 -6 0 -18 -13 -28 -29 -45 -76 -159 -195 -141 -146 11 29
-14 15 -34 -19 -13 -22 -37 -42 -64 -54 -60 -26 -114 -76 -128 -116 -16 -50
-20 -77 -10 -71 6 4 15 -7 22 -22 7 -15 21 -41 31 -56 23 -34 21 -36 -19 -30
-24 4 -30 9 -27 22 2 9 -5 25 -16 35 -16 15 -21 16 -21 5 -1 -10 -4 -8 -11 4
-22 37 13 172 53 204 7 6 55 33 106 59 62 32 108 63 135 93 149 163 263 254
347 278 58 17 140 10 193 -16z m589 -8 c-2 -16 -8 -32 -12 -38 -5 -5 -11 -25
-13 -44 -5 -32 -11 -40 -48 -61 -41 -24 -40 51 1 90 17 15 30 31 30 36 0 10
31 44 40 44 4 0 5 -12 2 -27z m-492 -8 c16 -9 19 -14 9 -15 -8 0 -24 7 -35 15
-24 18 -7 19 26 0z m1496 -17 c-3 -13 -6 -29 -6 -37 0 -11 -3 -11 -15 -1 -24
20 -19 60 6 60 17 0 20 -4 15 -22z m192 -12 c3 -12 -1 -17 -10 -14 -7 3 -15
13 -16 22 -3 12 1 17 10 14 7 -3 15 -13 16 -22z m762 -17 c25 -4 65 -12 89
-16 32 -6 46 -14 52 -31 6 -17 5 -22 -7 -22 -9 0 -12 5 -8 12 5 8 2 9 -12 4
-35 -14 -122 -18 -129 -6 -5 9 -1 10 14 5 13 -4 21 -2 21 5 0 8 -12 11 -34 8
-19 -2 -34 1 -33 6 1 5 -7 12 -18 14 -11 2 -23 9 -27 15 -9 15 13 29 32 21 8
-4 35 -10 60 -15z m-2664 -26 c-3 -25 -9 -29 -57 -40 -55 -13 -119 -8 -119 9
0 15 103 58 142 58 34 0 36 -2 34 -27z m140 -8 c40 -26 28 -35 -45 -35 -39 0
-73 -4 -76 -10 -15 -24 -21 -7 -11 33 l10 43 49 -7 c27 -5 60 -15 73 -24z
m2392 8 c2 -12 12 -25 23 -28 30 -10 17 -28 -25 -39 -29 -6 -40 -5 -47 5 -7
11 -9 9 -10 -6 0 -19 -1 -18 -11 3 -12 24 -37 29 -56 10 -9 -9 -12 -8 -12 5 0
22 88 79 115 75 12 -2 21 -12 23 -25z m-578 -57 c4 -20 5 -36 1 -36 -13 0 -31
49 -24 65 7 21 13 14 23 -29z m-15 -125 c5 -12 3 -13 -6 -4 -6 6 -13 36 -15
65 l-3 53 9 -49 c5 -26 11 -55 15 -65z m-2497 44 c0 -16 -2 -15 -8 5 -11 34
-11 60 0 35 5 -11 8 -29 8 -40z m852 -44 c11 -42 6 -50 -18 -28 -10 10 -22 14
-27 10 -4 -5 -5 7 -2 25 4 18 2 32 -3 32 -6 0 -10 10 -10 22 l0 21 25 -23 c14
-13 29 -39 35 -59z m92 57 c-7 -7 -12 -8 -12 -2 0 14 12 26 19 19 2 -3 -1 -11
-7 -17z m1374 0 c4 -5 1 -15 -6 -21 -9 -9 -11 -9 -8 3 2 8 -3 14 -11 15 -8 0
-16 5 -18 12 -5 14 34 6 43 -9z m-1336 -19 c0 -6 -4 -7 -10 -4 -5 3 -10 11
-10 16 0 6 5 7 10 4 6 -3 10 -11 10 -16z m45 11 c3 -5 2 -10 -4 -10 -5 0 -13
5 -16 10 -3 6 -2 10 4 10 5 0 13 -4 16 -10z m2972 -32 c-3 -7 -5 -2 -5 12 0
14 2 19 5 13 2 -7 2 -19 0 -25z m-1080 11 c-14 -8 -22 -8 -30 0 -8 8 -3 11 19
11 25 -1 27 -2 11 -11z m233 -3 c0 -3 -4 -8 -10 -11 -5 -3 -10 -1 -10 4 0 6 5
11 10 11 6 0 10 -2 10 -4z m-2630 -16 c0 -5 -7 -10 -16 -10 -8 0 -12 5 -9 10
3 6 10 10 16 10 5 0 9 -4 9 -10z m392 -28 c-14 -21 -17 -23 -20 -9 -4 21 16
49 29 41 5 -3 1 -17 -9 -32z m159 6 c8 -15 8 -18 0 -14 -6 4 -16 16 -22 28 -8
15 -8 18 0 14 6 -4 16 -16 22 -28z m1779 18 c0 -8 -13 -17 -30 -21 -16 -4 -32
-11 -35 -16 -4 -5 -18 -9 -32 -9 -24 0 -25 1 -11 22 23 34 108 52 108 24z
m-2160 -11 c0 -8 -8 -15 -17 -15 -14 0 -12 -4 7 -25 13 -14 34 -25 46 -25 13
0 26 -4 29 -10 3 -5 0 -10 -7 -10 -10 0 -9 -3 1 -9 9 -6 22 -6 32 0 10 5 25 9
35 9 16 0 16 -1 1 -18 -24 -26 -22 -29 16 -25 l32 4 -34 -16 c-19 -8 -36 -13
-38 -11 -3 2 -18 0 -34 -4 -18 -5 -27 -5 -24 1 4 5 -1 9 -9 9 -9 0 -23 -12
-33 -27 -9 -16 -28 -41 -42 -57 l-26 -28 55 6 c157 17 171 17 193 3 41 -27 81
-30 109 -7 14 11 31 20 37 20 7 0 14 7 18 16 7 18 -40 64 -65 64 -12 0 -12 4
3 20 21 24 41 26 49 5 8 -23 36 -18 36 6 0 11 5 17 10 14 6 -3 10 5 10 19 0
33 33 43 66 21 14 -9 28 -23 31 -31 3 -8 25 -23 49 -33 43 -20 59 -41 29 -41
-18 0 -20 -20 -2 -21 24 -2 307 3 522 10 181 5 431 0 375 -7 -13 -2 -13 -3 0
-12 10 -7 -93 -9 -308 -8 -177 2 -322 1 -322 -2 0 -3 -10 -5 -22 -6 -13 0
-113 -4 -223 -9 -142 -5 -209 -12 -232 -22 -18 -9 -33 -19 -33 -23 0 -4 -27
-11 -60 -15 -45 -5 -69 -3 -93 8 -25 11 -47 13 -97 7 -36 -5 -117 -14 -180
-20 -63 -6 -130 -13 -149 -16 -41 -5 -77 -43 -94 -99 l-12 -40 -5 30 c-8 43
-1 63 36 101 20 19 31 39 28 48 -3 7 0 17 6 21 7 4 14 -2 17 -14 6 -25 -2 -24
103 -10 80 11 86 14 127 54 64 65 54 97 -23 76 -20 -6 -42 -7 -48 -4 -11 7 75
32 112 33 12 0 22 6 22 14 0 8 5 16 11 18 6 2 -12 15 -40 30 -29 14 -46 28
-39 31 7 3 0 6 -17 7 -29 1 -29 1 -11 15 27 20 86 20 86 0z m1674 -21 c14 -38
-16 -95 -64 -119 -42 -21 -122 -37 -132 -27 -11 11 57 62 83 62 21 0 34 17 43
53 4 15 17 32 29 37 31 12 34 12 41 -6z m-1994 2 c0 -2 -7 -7 -16 -10 -8 -3
-12 -2 -9 4 6 10 25 14 25 6z m-565 -39 c0 -16 -3 -31 -7 -33 -4 -3 -12 -23
-18 -45 -9 -33 -15 -40 -30 -36 -11 3 -21 0 -23 -6 -2 -8 -13 -5 -31 7 -31 20
-43 16 -29 -9 5 -9 6 -39 3 -68 -7 -48 -5 -53 22 -76 15 -14 28 -29 28 -33 0
-11 -48 -10 -55 2 -3 5 -19 7 -34 4 -23 -5 -32 -2 -40 15 -14 24 1 61 24 61 7
0 15 6 17 12 6 16 -14 68 -24 68 -12 0 -10 88 2 111 13 24 50 24 81 0 28 -21
49 -17 49 9 0 36 12 51 38 48 20 -2 26 -9 27 -31z m62 10 c14 -30 -5 -62 -25
-41 -19 21 -14 64 8 64 4 0 11 -10 17 -23z m4343 13 c0 -5 -4 -10 -10 -10 -5
0 -10 5 -10 10 0 6 5 10 10 10 6 0 10 -4 10 -10z m63 -2 c3 -10 9 -10 26 0 42
25 71 4 71 -53 0 -32 25 -43 49 -21 21 19 62 21 79 4 16 -16 15 -73 -3 -107
-15 -30 -61 -49 -77 -33 -5 5 -1 23 12 45 l21 35 -38 -19 c-66 -34 -93 -23
-93 37 0 32 -28 31 -36 -1 -3 -14 -11 -25 -16 -25 -6 0 -7 7 -4 16 3 8 2 12
-4 9 -6 -3 -10 -1 -10 5 0 6 -12 -2 -26 -19 -30 -36 -40 -38 -49 -12 -8 27 17
83 49 108 14 12 26 26 26 32 0 15 17 14 23 -1z m-1833 -85 c0 -7 11 -13 25
-13 27 0 34 -15 10 -24 -8 -3 -15 -12 -15 -21 0 -12 15 -15 83 -16 45 0 108
-3 140 -5 31 -2 57 -1 57 3 0 12 -33 43 -45 43 -7 0 -25 6 -40 14 l-27 14 24
8 c32 11 290 6 302 -6 7 -7 -12 -11 -55 -11 -81 -2 -90 -3 -112 -13 -11 -5
-29 -4 -43 3 -30 13 -34 14 -34 3 0 -11 56 -43 63 -36 3 4 18 -4 34 -16 17
-13 29 -17 31 -10 3 8 8 7 19 -2 9 -7 39 -14 67 -15 28 -1 119 -9 201 -18 304
-31 280 -30 329 -4 39 20 48 21 72 10 25 -11 30 -10 45 11 l18 23 23 -22 c13
-12 43 -33 68 -46 54 -28 60 -44 24 -58 -22 -8 -25 -12 -14 -19 8 -5 11 -12 8
-16 -4 -3 -21 5 -37 19 -32 27 -46 29 -271 47 -74 6 -162 15 -195 20 -33 5
-116 12 -185 16 -83 5 -129 12 -138 21 -7 7 -23 13 -34 13 -16 0 -19 -5 -15
-21 4 -15 2 -19 -8 -15 -46 17 -107 25 -240 30 -254 11 -262 10 -289 -7 -39
-26 -43 -20 -11 13 18 19 39 30 55 30 15 0 29 3 33 6 8 9 -4 35 -13 29 -5 -3
-11 -1 -14 4 -4 5 10 26 29 47 34 36 36 36 55 19 11 -10 20 -24 20 -32z m877
31 c-3 -3 -12 -4 -19 -1 -8 3 -5 6 6 6 11 1 17 -2 13 -5z m-3000 -10 c-3 -3
-12 -4 -19 -1 -8 3 -5 6 6 6 11 1 17 -2 13 -5z m594 -53 c-15 -27 -41 -35 -41
-12 0 23 9 31 32 31 15 0 17 -4 9 -19z m1676 4 c0 -10 -6 -14 -14 -10 -8 3
-24 5 -36 5 -18 0 -19 2 -7 10 23 15 57 12 57 -5z m1456 -2 c-7 -2 -19 -2 -25
0 -7 3 -2 5 12 5 14 0 19 -2 13 -5z m-1738 -13 c-3 -5 -13 -10 -21 -10 -8 0
-12 5 -9 10 3 6 13 10 21 10 8 0 12 -4 9 -10z m-1460 -40 c-3 -5 -12 -10 -18
-10 -7 0 -6 4 3 10 19 12 23 12 15 0z m105 -16 c0 -2 -9 -4 -20 -4 -11 0 -20
4 -20 9 0 5 9 7 20 4 11 -3 20 -7 20 -9z m1264 -9 c3 -9 0 -12 -9 -9 -7 3 -16
12 -19 19 -3 9 0 12 9 9 7 -3 16 -12 19 -19z m-1694 7 c0 -12 -49 -34 -60 -27
-5 3 -7 12 -3 20 5 16 63 21 63 7z m3988 -80 c16 -22 11 -33 -24 -52 -39 -22
-43 -52 -9 -70 15 -8 31 -23 37 -33 9 -18 7 -19 -28 -12 -50 9 -57 14 -45 29
7 9 7 16 -1 24 -7 7 -9 12 -5 12 14 0 -39 52 -61 61 -33 13 -22 32 24 42 21 4
43 12 48 17 13 13 47 3 64 -18z m-2378 10 c0 -4 -6 -16 -13 -27 -7 -11 -14
-35 -16 -53 -1 -19 -10 -42 -19 -53 -19 -21 -33 -25 -30 -7 2 7 -14 13 -42 15
-57 5 -65 13 -14 14 34 1 36 2 14 9 -25 8 -25 8 5 9 27 2 28 3 13 15 -10 7
-16 15 -13 18 2 2 -28 5 -68 6 -39 1 -116 3 -169 6 -54 2 -98 0 -98 -5 0 -5
-9 -18 -20 -29 -19 -19 -19 -21 -3 -26 72 -23 77 -37 18 -48 -49 -10 -75 0
-75 28 0 27 -25 52 -62 61 -16 4 -28 13 -28 20 0 7 -3 20 -6 28 -3 10 2 17 13
20 31 8 613 7 613 -1z m-695 -12 c6 -10 -87 -60 -112 -60 -7 0 -13 -5 -13 -11
0 -5 5 -7 10 -4 25 16 27 -9 3 -29 -22 -19 -46 -25 -112 -31 l-84 -7 7 25 c3
14 9 32 12 41 4 11 1 16 -10 16 -9 0 -16 -8 -16 -17 0 -9 -10 -38 -22 -65 -21
-47 -37 -56 -46 -28 -3 7 0 10 5 7 6 -4 8 4 5 18 -2 14 0 31 6 38 6 7 14 32
18 54 6 42 6 42 58 47 143 16 283 19 291 6z m1188 3 c107 -6 107 -6 107 -32 0
-24 -4 -26 -45 -27 -50 -2 -67 -10 -46 -23 9 -6 5 -10 -13 -15 -15 -4 -24 -11
-21 -16 4 -6 -11 -10 -35 -10 -23 0 -39 -4 -36 -8 2 -4 -13 -9 -35 -9 -29 -2
-43 3 -52 18 -6 10 -22 19 -34 19 -16 0 -23 6 -23 20 0 10 -6 23 -14 27 -12 8
-36 45 -36 57 0 8 152 8 283 -1z m1182 -57 c11 -20 16 -38 13 -41 -12 -12 -68
38 -68 60 0 47 24 39 55 -19z m-670 24 c258 -24 445 -48 458 -60 4 -3 -4 -19
-18 -34 -14 -15 -25 -23 -25 -18 0 5 -15 9 -32 10 -46 1 -115 11 -157 21 -20
5 -76 9 -126 9 -49 0 -82 -3 -72 -5 9 -2 17 -9 17 -14 0 -6 -4 -7 -10 -4 -5 3
-10 -1 -10 -9 0 -9 -9 -16 -20 -16 -11 0 -20 6 -20 13 0 9 -3 8 -9 -2 -5 -8
-14 -10 -21 -6 -8 5 -11 4 -7 -2 4 -6 -4 -13 -18 -16 -17 -3 -29 1 -35 12 -5
9 -10 13 -10 9 0 -5 -8 0 -18 10 -10 9 -15 19 -10 22 4 3 -2 12 -14 19 -19 12
-20 11 -15 -8 3 -12 3 -21 0 -21 -13 0 -30 29 -36 63 l-6 37 52 0 c29 0 102
-4 162 -10z m-2318 -49 c14 -42 10 -69 -6 -42 -6 9 -11 10 -15 2 -4 -6 -5 -15
-2 -20 6 -10 -55 -21 -152 -27 -59 -4 -67 -2 -88 22 -21 22 -25 23 -31 8 -5
-15 -8 -15 -17 -2 -6 8 -21 20 -33 27 -21 11 -32 41 -15 41 4 0 45 5 92 11
104 13 232 26 244 25 4 -1 15 -21 23 -45z m-566 10 c-47 -32 -61 -32 -61 -1 0
22 13 28 65 29 l40 1 -44 -29z m-579 -78 c8 -10 6 -13 -6 -13 -10 0 -24 -7
-32 -15 -9 -8 -22 -15 -30 -15 -25 0 -15 38 19 64 28 23 32 24 36 8 2 -9 8
-23 13 -29z m2738 22 c0 -8 -4 -15 -8 -15 -5 0 -9 -7 -9 -15 0 -20 -64 -145
-74 -145 -5 0 -9 6 -9 13 0 15 35 109 56 149 15 30 44 38 44 13z m-2325 -25
c-11 -4 -38 -13 -60 -19 -22 -5 -89 -24 -150 -41 -60 -17 -146 -40 -190 -51
-44 -11 -84 -25 -89 -30 -6 -5 -26 -9 -45 -9 -49 0 -30 13 58 40 99 30 324 89
385 100 27 5 51 12 54 15 3 3 17 5 31 4 23 0 24 -1 6 -9z m125 -41 c-7 -16
-17 -29 -22 -29 -14 0 -1 62 15 72 18 11 21 -9 7 -43z m2547 39 c14 -18 53
-134 53 -158 0 -34 -17 -22 -38 28 -19 44 -42 118 -42 135 0 11 17 8 27 -5z
m1226 3 c23 -5 74 -15 112 -21 39 -6 95 -18 125 -25 30 -7 82 -19 115 -25 71
-13 226 -60 240 -72 6 -5 -8 -8 -33 -6 -23 2 -42 6 -42 9 0 4 -35 15 -77 24
-43 9 -96 22 -118 30 -22 7 -69 19 -105 25 -36 7 -74 16 -85 20 -11 5 -56 14
-100 21 -78 11 -133 28 -92 29 10 0 37 -4 60 -9z m-143 -96 c0 -11 -9 -26 -20
-32 -17 -11 -18 -10 -13 5 4 9 11 20 16 23 6 4 3 16 -7 30 -9 13 -16 35 -15
49 1 22 3 20 20 -15 10 -22 19 -49 19 -60z m-3672 -1 c6 -22 27 -60 47 -83 19
-24 35 -50 35 -59 0 -10 3 -28 7 -42 6 -22 5 -24 -10 -11 -9 7 -17 10 -17 5 0
-4 -6 1 -14 11 -8 11 -12 23 -10 27 2 4 -1 10 -7 14 -8 5 -9 3 -4 -7 8 -12 6
-12 -8 0 -9 7 -17 24 -17 37 0 51 -67 83 -150 70 -22 -3 -58 -9 -80 -12 -22
-3 -48 -3 -58 1 -21 10 40 24 109 24 33 1 51 7 64 21 10 11 15 20 10 20 -4 0
-2 6 5 14 7 9 27 14 49 13 36 -1 39 -4 49 -43z m3795 29 c31 -26 32 -51 2 -74
-14 -12 -33 -35 -42 -52 -24 -48 -100 -137 -108 -129 -5 4 -6 0 -3 -8 3 -8 -3
-24 -13 -34 -11 -11 -19 -16 -19 -12 0 14 31 67 51 87 10 10 19 27 19 38 0 10
10 31 21 46 17 21 19 29 9 35 -10 6 -6 14 14 34 29 30 33 41 11 32 -19 -7 -19
4 1 32 18 27 29 27 57 5z m-431 -15 c-11 -11 -32 -3 -32 12 0 4 9 6 21 3 13
-4 17 -9 11 -15z m-3308 -40 l16 -32 -25 24 c-26 24 -32 40 -16 40 5 0 17 -14
25 -32z m1782 7 c-23 -17 -236 -22 -236 -6 0 15 28 19 145 20 99 0 108 -1 91
-14z m2161 -25 c15 -9 12 -10 -16 -6 -18 3 -58 6 -87 6 -34 0 -54 4 -54 11 0
15 132 5 157 -11z m-1015 -62 c-9 -9 -12 -7 -12 12 0 19 3 21 12 12 9 -9 9
-15 0 -24z m-2837 -105 c7 -18 9 -33 5 -33 -15 0 -27 26 -33 70 -7 48 -1 40
28 -37z m-671 58 c3 -5 -6 -11 -19 -14 -29 -5 -45 9 -18 16 29 8 32 7 37 -2z
m4846 -11 c11 -7 7 -10 -17 -10 -18 0 -33 5 -33 10 0 13 30 13 50 0z m-4675
-40 c3 -5 1 -10 -4 -10 -6 0 -11 5 -11 10 0 6 2 10 4 10 3 0 8 -4 11 -10z
m-135 -16 c29 -9 70 -27 91 -40 21 -13 41 -24 44 -24 3 0 40 -16 82 -36 96
-45 160 -74 288 -132 55 -24 106 -49 113 -55 18 -14 15 -27 -7 -27 -11 0 -23
-5 -26 -10 -24 -39 -363 120 -530 249 -33 25 -72 52 -87 60 -16 8 -28 18 -28
23 0 10 -3 11 60 -8z m4789 9 c0 -11 -171 -132 -259 -185 -158 -94 -198 -113
-279 -134 -9 -2 -43 -11 -76 -21 -65 -18 -118 -13 -109 11 5 13 64 45 174 94
30 13 82 37 115 52 33 15 89 40 125 55 131 54 219 98 214 106 -2 5 10 13 28
18 42 12 68 13 67 4z m-209 -11 c0 -4 -13 -16 -30 -25 -16 -10 -30 -24 -30
-31 0 -7 -37 -30 -82 -51 -344 -159 -382 -175 -407 -174 -9 0 7 9 35 20 28 10
133 60 233 109 100 50 187 90 194 90 8 0 7 3 -3 10 -17 10 -18 9 40 37 54 26
50 25 50 15z m-4380 -27 c19 -14 38 -25 42 -25 5 0 26 -11 48 -25 22 -14 46
-25 55 -25 8 0 15 -4 15 -9 0 -5 10 -13 23 -17 12 -3 54 -21 92 -39 39 -18 98
-45 133 -60 75 -34 83 -53 10 -24 -29 12 -71 28 -93 35 -83 30 -323 155 -350
184 -35 36 -21 39 25 5z m-158 -90 c97 -48 106 -59 23 -30 -37 13 -77 33 -89
44 -28 29 -18 27 66 -14z m4721 6 c-40 -24 -143 -65 -149 -59 -7 8 159 87 169
81 5 -3 -4 -13 -20 -22z m-447 4 c-18 -18 -100 -49 -91 -35 8 13 76 49 93 50
10 0 10 -4 -2 -15z m-3759 -62 c-6 -6 -87 30 -87 38 0 5 20 -1 45 -13 24 -12
43 -23 42 -25z m-711 -24 c10 -17 -13 -36 -27 -22 -12 12 -4 33 11 33 5 0 12
-5 16 -11z m5084 -3 c0 -13 -20 -26 -41 -26 -14 0 -11 28 4 33 23 10 37 7 37
-7z m-4810 -25 c0 -4 35 -18 78 -30 122 -36 163 -53 196 -83 l30 -28 -34 0
c-19 0 -53 5 -75 11 -32 9 -36 13 -21 19 18 6 18 7 2 13 -10 4 -25 7 -34 7
-15 0 -15 -2 -2 -11 12 -8 11 -10 -5 -7 -11 2 -20 10 -20 17 0 8 -6 16 -12 19
-7 2 -13 -1 -13 -7 0 -7 -16 -3 -37 9 -49 26 -73 45 -73 58 0 6 -10 13 -22 15
-17 3 -14 5 10 6 17 0 32 -3 32 -8z m4549 -7 c-14 -17 -124 -75 -136 -72 -5 1
-21 -1 -38 -4 -16 -4 -52 -10 -79 -13 -59 -8 -55 9 6 25 22 6 52 16 67 22 80
33 149 56 170 57 20 1 22 -1 10 -15z m-2367 -68 l63 -11 3 -88 3 -87 -52 0
c-42 0 -56 5 -75 25 -20 22 -32 25 -89 25 -52 0 -69 -4 -85 -20 -16 -16 -18
-25 -10 -40 11 -21 14 -22 137 -45 96 -17 150 -42 186 -85 52 -61 45 -188 -13
-240 -15 -14 -57 -36 -92 -50 -55 -22 -77 -25 -183 -24 -88 1 -130 5 -159 17
-48 21 -46 21 -46 -3 0 -17 -7 -20 -43 -20 -24 0 -85 -3 -135 -6 l-91 -7 -7
27 c-4 17 -1 37 7 52 20 39 2 47 -88 41 -92 -7 -114 -10 -131 -21 -19 -11 -14
-34 8 -41 30 -10 26 -76 -5 -82 -6 -1 -37 -4 -70 -7 -33 -4 -83 -9 -112 -12
-50 -5 -53 -4 -59 20 -7 28 -14 32 -29 17 -23 -21 -105 -60 -165 -78 -86 -25
-180 -22 -262 9 -240 89 -268 444 -47 584 79 49 153 65 296 62 l131 -3 7 -30
c3 -16 8 -62 12 -101 l6 -71 -53 -7 c-49 -7 -55 -5 -74 17 -27 32 -58 39 -117
26 -61 -13 -125 -67 -140 -119 -9 -31 -9 -49 1 -87 25 -90 73 -133 149 -133
42 0 142 33 164 54 33 32 61 45 74 34 7 -6 13 -17 13 -26 0 -29 24 -82 37 -82
22 0 31 30 133 405 4 17 11 38 15 47 4 11 0 20 -12 26 -15 8 -18 19 -15 51 l4
40 66 6 c37 3 107 10 155 15 88 9 117 6 117 -12 0 -8 113 -282 178 -433 32
-72 40 -85 58 -85 10 0 14 15 14 55 l0 55 46 0 c36 0 52 -5 69 -24 45 -49 206
-41 213 11 4 27 -33 48 -103 57 -75 11 -157 35 -180 54 -69 57 -94 165 -56
239 58 115 201 151 433 109z m-2362 -6 c0 -5 -2 -10 -4 -10 -3 0 -8 5 -11 10
-3 6 -1 10 4 10 6 0 11 -4 11 -10z m2930 -3 l145 -12 -4 -95 c-2 -52 -4 -96
-6 -98 -2 -2 -23 0 -48 3 -31 5 -47 13 -50 25 -3 12 -17 19 -47 22 -23 2 -43
1 -45 -2 -1 -3 -6 -88 -10 -190 l-7 -186 26 -12 c24 -10 27 -17 24 -50 l-3
-37 -140 2 -140 1 -3 38 c-3 28 1 42 17 53 18 15 20 30 23 201 l3 185 -42 3
c-35 3 -42 0 -48 -18 -6 -18 -13 -21 -53 -18 l-47 3 -3 98 -3 97 158 -1 c87 0
223 -6 303 -12z m1110 3 c0 -5 -4 -10 -10 -10 -5 0 -10 5 -10 10 0 6 5 10 10
10 6 0 10 -4 10 -10z m-40 -20 c0 -5 -6 -10 -14 -10 -8 0 -23 -3 -33 -7 -16
-6 -16 -5 -4 10 15 18 51 23 51 7z m579 -3 c-35 -26 -145 -82 -195 -99 -63
-23 -63 -23 -78 -3 -9 11 -15 22 -16 25 0 3 32 6 71 7 40 1 75 5 78 10 3 5 22
15 41 23 34 14 34 14 10 22 l-25 7 25 -1 c14 -1 32 2 40 5 29 11 45 14 49 11
2 -2 2 -5 0 -7z m-1209 -17 c22 -6 25 -11 22 -46 -3 -35 -18 -58 -44 -66 -5
-2 -15 -84 -23 -183 -15 -193 -15 -194 35 -195 14 0 48 -3 77 -6 50 -6 53 -5
64 20 11 24 17 27 58 24 l46 -3 -3 -60 c-2 -33 -7 -76 -11 -95 l-7 -35 -104 1
c-183 1 -401 20 -411 35 -17 27 -10 67 16 86 24 17 26 23 35 188 5 94 12 187
16 207 5 30 3 39 -15 50 -16 10 -21 23 -21 56 l0 43 123 -7 c67 -4 133 -10
147 -14z m1064 4 c21 -20 21 -21 -11 -21 -16 1 -34 -1 -42 -4 -7 -2 -16 3 -19
11 -2 8 -1 12 3 8 4 -4 14 -1 22 7 18 19 28 19 47 -1z m-4397 -46 c-2 -13 -4
-5 -4 17 -1 22 1 32 4 23 2 -10 2 -28 0 -40z m4784 -45 c-9 -16 -10 -15 -11 8
0 15 3 42 8 60 l7 34 3 -42 c2 -24 -1 -51 -7 -60z m-991 36 c63 -8 313 -50
388 -65 21 -4 22 -8 16 -62 -3 -31 -10 -74 -15 -95 -10 -37 -11 -38 -47 -31
-20 3 -44 15 -52 26 -16 19 -101 44 -175 50 -39 3 -40 3 -46 -37 -4 -22 -5
-43 -3 -46 2 -4 27 -9 56 -12 88 -10 152 -18 164 -22 8 -2 8 -22 0 -72 -10
-58 -15 -68 -31 -66 -11 1 -60 7 -109 14 -48 6 -92 7 -96 2 -12 -13 -20 -82
-10 -88 23 -14 194 -35 204 -25 12 12 76 13 95 1 12 -8 12 -20 0 -85 -17 -97
-18 -100 -55 -86 -26 10 -122 25 -291 46 -29 4 -51 9 -49 13 2 3 -6 7 -17 7
-12 1 -50 7 -84 14 l-63 12 0 39 c0 21 4 39 8 39 33 0 41 29 63 229 21 190 22
204 6 216 -16 11 -25 84 -12 96 5 6 53 2 155 -12z m-3395 -9 c26 -12 33 -19
20 -19 -11 0 -38 9 -60 19 -26 12 -33 19 -20 19 11 0 38 -9 60 -19z m100 -30
c3 -5 -3 -10 -14 -10 -11 0 -23 5 -26 10 -3 6 3 10 14 10 11 0 23 -4 26 -10z
m-405 -45 c0 -14 -2 -25 -4 -25 -2 0 -6 11 -8 25 -3 14 -1 25 3 25 5 0 9 -11
9 -25z m4597 -47 c-3 -7 -5 -2 -5 12 0 14 2 19 5 13 2 -7 2 -19 0 -25z m-4400
-175 c-3 -10 -5 -4 -5 12 0 17 2 24 5 18 2 -7 2 -21 0 -30z m145 -30 c-5 -55
-9 -63 -18 -39 -8 20 4 86 15 86 5 0 6 -21 3 -47z m4262 5 c-10 -16 -22 -7
-17 13 4 15 8 17 14 8 4 -7 5 -17 3 -21z m-287 -135 c-2 -21 -4 -4 -4 37 0 41
2 58 4 38 2 -21 2 -55 0 -75z m-4017 -76 c0 -5 -4 -5 -10 -2 -5 3 -10 14 -10
23 0 15 2 15 10 2 5 -8 10 -19 10 -23z m4011 2 c-9 -22 -10 -22 -10 -3 -1 11
2 24 6 27 12 12 14 0 4 -24z m-4008 -104 c-7 -21 -13 -19 -13 6 0 11 4 18 10
14 5 -3 7 -12 3 -20z m41 -57 c-6 -10 -25 -11 -22 0 0 4 -2 15 -7 26 -5 12 -3
21 6 27 10 6 16 1 21 -18 4 -14 5 -30 2 -35z m1970 -18 c4 -25 2 -47 -6 -60
-17 -26 -20 -25 -40 10 -15 27 -15 32 -2 60 21 42 40 38 48 -10z m66 17 c0 -8
-11 -24 -25 -37 -26 -24 -31 -18 -19 28 7 24 44 32 44 9z m-460 -22 c34 -17
38 -40 13 -67 -20 -23 -33 -23 -33 0 0 12 -14 22 -42 32 -44 16 -63 40 -30 40
10 0 27 -9 37 -20 10 -11 25 -20 34 -19 12 0 10 4 -6 16 -44 30 -23 44 27 18z
m45 5 c3 -5 2 -10 -4 -10 -5 0 -13 5 -16 10 -3 6 -2 10 4 10 5 0 13 -4 16 -10z
m814 -3 c12 -15 6 -21 -55 -64 -30 -20 -31 -21 -42 -2 -10 16 -9 19 4 19 8 0
23 8 32 17 16 15 15 16 -10 10 -14 -4 -33 -10 -42 -13 -12 -5 -15 -2 -10 10 6
15 19 21 74 29 14 3 28 5 31 6 4 0 12 -5 18 -12z m-194 -6 c-6 -4 -23 -11 -40
-15 l-30 -6 25 15 c27 16 60 21 45 6z m40 -61 c7 -12 -12 -12 -40 0 -18 8 -17
9 7 9 15 1 30 -3 33 -9z m-565 -4 c0 -10 -84 -65 -92 -60 -22 14 2 44 43 54
44 10 49 11 49 6z m194 -12 c9 -4 16 -18 16 -33 0 -23 -9 -31 -57 -54 -71 -33
-83 -34 -83 -3 0 55 74 109 124 90z m225 -30 c30 -18 47 -52 32 -67 -4 -4 -29
4 -55 19 -40 23 -51 25 -73 15 -18 -8 -23 -16 -18 -29 12 -32 10 -37 -13 -34
-17 3 -25 -2 -29 -17 -8 -29 -43 -38 -60 -15 -18 25 -8 64 22 89 14 12 25 25
25 31 0 5 6 16 13 23 17 18 117 8 156 -15z m531 -42 c0 -4 -26 -13 -57 -20
-32 -8 -112 -29 -178 -47 -121 -34 -198 -55 -379 -102 l-100 -26 -105 27
c-109 27 -324 84 -420 110 -29 8 -56 17 -59 20 -10 11 27 6 130 -18 56 -13
135 -27 173 -31 39 -3 93 -15 121 -25 29 -10 54 -17 56 -14 3 2 26 -5 52 -17
38 -16 53 -19 74 -11 15 6 43 13 62 16 19 3 48 13 63 21 16 8 62 22 104 30 42
9 79 18 83 20 9 5 201 44 295 60 44 7 81 13 83 14 1 0 2 -2 2 -7z m-1950 -58
c0 -8 -7 -14 -15 -14 -15 0 -21 21 -9 33 10 9 24 -2 24 -19z m2394 -8 c-6 -16
-24 -23 -24 -8 0 10 22 33 27 28 2 -2 1 -11 -3 -20z m-1865 2 c27 -6 52 -17
55 -25 6 -15 -18 -17 -60 -4 -16 5 -42 12 -57 15 -15 4 -25 11 -22 16 8 13 23
13 84 -2z m-374 -48 c3 -5 2 -10 -4 -10 -5 0 -13 5 -16 10 -3 6 -2 10 4 10 5
0 13 -4 16 -10z m1935 -30 c0 -5 -4 -10 -9 -10 -6 0 -13 5 -16 10 -3 6 1 10 9
10 9 0 16 -4 16 -10z m-1879 -133 c-20 -20 -34 7 -26 50 l7 38 15 -38 c12 -29
13 -41 4 -50z m1909 16 c0 -12 -5 -25 -10 -28 -15 -9 -23 21 -15 52 5 21 8 24
16 12 5 -7 9 -24 9 -36z"/>
<path d="M2970 4940 c0 -6 7 -25 16 -41 l15 -31 20 38 c10 21 19 40 19 41 0 2
-16 3 -35 3 -19 0 -35 -5 -35 -10z"/>
<path d="M3140 4569 c0 -6 9 -22 20 -36 19 -24 20 -24 20 -5 0 11 -7 28 -16
36 -18 19 -24 20 -24 5z"/>
<path d="M2681 4553 c-38 -5 -101 -48 -101 -69 0 -20 6 -18 46 21 34 34 39 35
82 29 43 -6 45 -6 30 10 -9 9 -18 15 -20 14 -2 0 -18 -3 -37 -5z"/>
<path d="M3205 4357 c-4 -10 -3 -23 3 -29 14 -14 21 3 12 27 -7 19 -8 19 -15
2z"/>
<path d="M2375 4010 c-3 -5 -1 -10 4 -10 6 0 11 5 11 10 0 6 -2 10 -4 10 -3 0
-8 -4 -11 -10z"/>
<path d="M2051 3618 c-5 -13 -7 -25 -5 -27 6 -7 22 9 27 29 7 27 -12 25 -22
-2z"/>
<path d="M3430 3599 c0 -24 44 -108 64 -123 31 -23 44 -15 27 17 -12 21 -91
114 -91 106z"/>
<path d="M1918 4323 c12 -2 30 -2 40 0 9 3 -1 5 -23 4 -22 0 -30 -2 -17 -4z"/>
<path d="M3770 4320 c0 -5 4 -10 9 -10 6 0 13 5 16 10 3 6 -1 10 -9 10 -9 0
-16 -4 -16 -10z"/>
<path d="M3815 4310 c3 -5 11 -10 16 -10 6 0 7 5 4 10 -3 6 -11 10 -16 10 -6
0 -7 -4 -4 -10z"/>
<path d="M3839 3837 c-5 -12 -6 -59 -1 -51 4 6 15 13 25 17 23 9 22 23 -3 30
-11 3 -20 4 -21 4z"/>
<path d="M4092 3760 c0 -14 2 -19 5 -12 2 6 2 18 0 25 -3 6 -5 1 -5 -13z"/>
<path d="M4086 3690 c1 -15 -8 -38 -22 -57 -13 -17 -24 -36 -24 -42 0 -13 23
-15 34 -3 4 4 13 7 19 7 7 0 13 8 15 19 3 11 0 16 -7 12 -15 -10 -14 27 1 42
9 9 9 12 1 12 -7 0 -14 8 -16 18 -2 9 -3 6 -1 -8z"/>
<path d="M3961 3584 c0 -11 3 -14 6 -6 3 7 2 16 -1 19 -3 4 -6 -2 -5 -13z"/>
<path d="M3968 3548 l-22 -22 21 -9 c16 -7 26 -5 43 11 23 21 20 42 -6 42 -8
0 -24 -10 -36 -22z"/>
<path d="M4004 3447 c-3 -9 -3 -25 1 -34 6 -16 8 -16 18 5 7 16 7 26 -1 34 -8
8 -13 7 -18 -5z"/>
<path d="M1857 3534 c-3 -4 -1 -16 5 -27 10 -20 11 -20 24 -2 8 10 14 22 14
27 0 9 -34 11 -43 2z"/>
<path d="M1765 3450 c3 -5 11 -10 16 -10 6 0 7 5 4 10 -3 6 -11 10 -16 10 -6
0 -7 -4 -4 -10z"/>
<path d="M2566 3403 c-11 -11 -6 -23 9 -23 8 0 15 4 15 9 0 13 -16 22 -24 14z"/>
<path d="M2773 3343 c9 -9 19 -14 23 -11 10 10 -6 28 -24 28 -15 0 -15 -1 1
-17z"/>
<path d="M2760 3199 c0 -5 5 -7 10 -4 6 3 10 8 10 11 0 2 -4 4 -10 4 -5 0 -10
-5 -10 -11z"/>
<path d="M2930 3139 c0 -5 5 -7 10 -4 6 3 10 8 10 11 0 2 -4 4 -10 4 -5 0 -10
-5 -10 -11z"/>
<path d="M2290 3124 c0 -8 5 -12 10 -9 6 3 10 10 10 16 0 5 -4 9 -10 9 -5 0
-10 -7 -10 -16z"/>
<path d="M2297 2953 c-4 -3 -7 -11 -7 -17 0 -6 5 -5 12 2 6 6 9 14 7 17 -3 3
-9 2 -12 -2z"/>
<path d="M2975 2771 c-3 -5 -1 -12 5 -16 12 -7 30 2 30 16 0 12 -27 12 -35 0z"/>
<path d="M3465 2770 c3 -5 8 -10 11 -10 2 0 4 5 4 10 0 6 -5 10 -11 10 -5 0
-7 -4 -4 -10z"/>
<path d="M3966 2922 c-3 -6 -1 -14 5 -17 15 -10 25 3 12 16 -7 7 -13 7 -17 1z"/>
<path d="M2013 2587 c-34 -15 -28 -27 13 -27 33 0 35 2 23 18 -7 9 -13 18 -14
18 0 1 -10 -3 -22 -9z"/>
<path d="M3686 2562 c-3 -6 -1 -14 5 -17 15 -10 25 3 12 16 -7 7 -13 7 -17 1z"/>
<path d="M4460 2500 c0 -5 5 -10 11 -10 5 0 7 5 4 10 -3 6 -8 10 -11 10 -2 0
-4 -4 -4 -10z"/>
<path d="M3350 2400 c0 -5 5 -10 10 -10 6 0 10 5 10 10 0 6 -4 10 -10 10 -5 0
-10 -4 -10 -10z"/>
<path d="M3960 2320 c0 -5 5 -10 11 -10 5 0 7 5 4 10 -3 6 -8 10 -11 10 -2 0
-4 -4 -4 -10z"/>
<path d="M4815 2150 c-3 -5 -1 -10 4 -10 6 0 11 5 11 10 0 6 -2 10 -4 10 -3 0
-8 -4 -11 -10z"/>
<path d="M2060 1438 c-6 -24 -17 -64 -24 -90 -8 -26 -11 -50 -8 -53 3 -3 29
-5 59 -5 67 0 72 11 39 87 -13 32 -28 68 -31 81 -10 34 -23 26 -35 -20z"/>
</g>
</svg>
