<?xml version="1.0" encoding="utf-8"?>
<!-- Generator: Adobe Illustrator 13.0.0, SVG Export Plug-In  -->
<!DOCTYPE svg PUBLIC "-//W3C//DTD SVG 1.1//EN" "http://www.w3.org/Graphics/SVG/1.1/DTD/svg11.dtd" [
	<!ENTITY ns_flows "http://ns.adobe.com/Flows/1.0/">
]>
<svg version="1.1"
	 xmlns="http://www.w3.org/2000/svg" xmlns:xlink="http://www.w3.org/1999/xlink" xmlns:a="http://ns.adobe.com/AdobeSVGViewerExtensions/3.0/"
	 x="0px" y="0px" width="341.888018536" height="292.493432289" viewBox="-0.631 -0.643 353 302" enable-background="new -0.631 -0.643 353 302"
	 xml:space="preserve">
<defs>
</defs>
<rect x="41.694" y="153.686" transform="matrix(1 0.0068 -0.0068 1 1.3133 -1.231)" fill="#FFFFFF" width="277.714" height="75.227"/>
<polygon fill="#FFFFFF" points="214.62,90.098 213.826,144.837 45.137,142.373 45.939,87.633 "/>
<rect x="140.57" y="265.079" transform="matrix(0.8818 0.4716 -0.4716 0.8818 149.6179 -46.6858)" fill="#FFFFFF" width="54.745" height="20.104"/>
<rect x="53.506" y="244.022" transform="matrix(0.8818 0.4716 -0.4716 0.8818 129.7926 -9.7007)" fill="#FFFFFF" width="61.485" height="20.104"/>
<rect x="31.989" y="178.16" transform="matrix(0.9706 -0.2408 0.2408 0.9706 -50.2334 20.646)" fill="#FFFFFF" width="54.745" height="75.409"/>
<polygon fill="#FFFFFF" points="221.265,283.716 168.68,284.799 163.369,25.691 215.955,24.62 "/>
<polygon opacity="0" fill="#FFFFFF" points="0.005,150.5 0.005,0 176.003,0 352,0 352,150.5 352,301 176.003,301 0.005,301 
	0.005,150.5 "/>
<rect x="172.904" y="19.433" transform="matrix(0.8818 0.4716 -0.4716 0.8818 37.5818 -90.9745)" fill="#FFFFFF" width="54.745" height="20.103"/>
<polygon fill="#FFFFFF" points="227.369,283.024 207.492,282.828 210.003,32.529 229.879,32.732 "/>
<rect x="182.359" y="210.691" transform="matrix(0.959 -0.2834 0.2834 0.959 -57.5608 80.4884)" fill="#FFFFFF" width="134.141" height="57.026"/>
<polygon fill="#FFFFFF" points="261.31,270.346 206.602,268.347 214.29,58.771 268.999,60.779 "/>
<polygon fill="#FFFFFF" points="249.554,271.443 216.787,253.922 307.851,83.672 340.613,101.202 "/>
<rect x="266.269" y="72.614" transform="matrix(0.8818 0.4716 -0.4716 0.8818 71.6459 -120.5336)" fill="#FFFFFF" width="20.034" height="20.104"/>
<rect x="245.25" y="61.514" transform="matrix(0.8818 0.4716 -0.4716 0.8818 65.0951 -116.5875)" fill="#FFFFFF" width="39.762" height="20.104"/>
<polygon fill="#FFFFFF" points="317.672,252.776 263.018,255.917 253.501,90.131 308.155,86.99 "/>
<polygon fill="#FFFFFF" points="49.686,163.113 46.157,108.482 259.805,94.707 263.322,149.339 "/>
<polygon fill="#FFFFFF" points="66.417,264.596 64.322,209.891 261.97,202.335 264.055,257.042 "/>
<polygon fill="#FFFFFF" points="305.174,255.256 279.272,248.704 308.973,131.179 334.874,137.727 "/>
<rect x="245.892" y="53.354" transform="matrix(0.8818 0.4716 -0.4716 0.8818 58.2983 -113.8318)" fill="#FFFFFF" width="20.704" height="12.07"/>
<rect x="292.57" y="111.099" transform="matrix(0.8818 0.4716 -0.4716 0.8818 94.962 -136.5785)" fill="#FFFFFF" width="54.745" height="20.104"/>
<path fill="#FBA301" d="M170.739,299.243c-2.878-0.853-11.531-3.493-19.229-5.867c-7.698-2.376-20.767-6.398-29.042-8.939
	c-20.475-6.287-35.954-11.045-54.234-16.67c-32.512-10.004-35.83-11.017-40.588-12.389c-2.694-0.776-5.254-1.776-5.69-2.22
	c-0.838-0.854-4.775-12.3-4.354-12.655c0.136-0.114,3.65-1.084,7.809-2.154l7.561-1.946l3.489,3.563
	c16.016,16.361,42.624,20.18,59.801,8.585l2.983-2.015l1.912,1.997c1.052,1.098,4.309,3.188,7.239,4.644
	c6.996,3.479,11.021,3.553,20.426,0.377l6.703-2.263l3.794,2.092c5.287,2.915,8.566,2.849,11.813-0.24
	c5.284-5.027,15.807-4.722,22.901,0.666c1.225,0.931,2.879,1.691,3.674,1.691c1.42,0,1.446,0.29,1.446,16.45
	c0,9.047-0.316,16.548-0.366,16.45l-2.813,12.394L170.739,299.243L170.739,299.243z M177.708,9.985
	c-0.376,1.133,1.444,4.095,1.444,47.97l-0.1,46.505l-2.996,0.146l-2.994,0.047l-0.33-7.591c-0.217-7.832-0.325-8.366-1.955-9.685
	c-2.054-1.662-2.323-1.631-16.469,1.85c-12.162,2.993-13.214,3.419-14.293,5.787c-0.725,1.591-0.916,1.659-2.001,0.711
	c-0.66-0.576-2.302-1.408-3.649-1.848s-4.153-1.74-6.235-2.889c-5.388-2.972-8.324-2.834-11.367,0.537
	c-1.303,1.444-2.905,3.391-3.561,4.327c-1.102,1.576-1.283,1.619-2.435,0.581c-0.685-0.617-2.977-1.799-5.094-2.626
	c-2.117-0.828-5.227-2.27-6.911-3.205c-4.969-2.76-7.319-2.353-11.3,1.955l-3.378,3.656l-0.497-1.981
	c-0.64-2.551-3.029-3.533-11.313-4.653c-11.692-1.58-18.166-0.199-23.344,4.982c-3.097,3.097-4.556,8.064-3.465,11.795
	c1.021,3.495,4.693,6.991,7.877,7.501l2.646,0.423v18.301v18.301l-2.53,1.364c-5.82,3.136-11.466,11.95-11.466,17.902
	c0,2.703,1.339,5.438,2.905,5.937c1.354,0.43,1.801,1.716,0.596,1.716c-1.261,0-11.1,9.854-13.52,13.541
	c-1.303,1.985-2.935,5.113-3.625,6.95c-0.69,1.837-1.367,3.229-1.503,3.093c-0.201-0.201-1.954-9.154-4.206-21.483
	c-0.176-0.962-1.487-8.156-2.913-15.986l-2.592-14.235l-5.941-2.214l-5.941-2.214L3.088,135.1
	c-1.191-5.583-2.373-11.261-2.626-12.619L0,120.014l4.726-2.016c2.599-1.109,4.998-2.254,5.33-2.546
	c0.334-0.293,0.085-3.572-0.558-7.348c-0.746-4.378-0.92-7.06-0.487-7.493c0.371-0.372,8.468-5.149,17.993-10.617l17.318-9.942
	l8.107,3.022c4.459,1.662,8.187,3.023,8.283,3.024c0.096,0.001,0.175-3.72,0.175-8.27v-8.271l9.972-6.193
	c5.484-3.407,14.961-9.286,21.059-13.066l11.087-6.872l8.247,6.287c4.535,3.458,8.456,6.287,8.711,6.287s0.423-5.263,0.372-11.696
	l-0.094-11.696l10.036-5.899c5.521-3.245,17.625-10.415,26.899-15.935s17.609-9.895,17.894-10.432
	C175.118,0.25,177.808,9.689,177.708,9.985L177.708,9.985z M206.121,102.873c-3.034-1.88-7.036-3.966-8.895-4.634
	c-1.857-0.668-3.379-1.462-3.379-1.763c0-0.301,1.181-1.151,2.624-1.888c1.444-0.737,5.086-3.106,8.093-5.266l5.47-3.926
	l3.128,2.154c1.723,1.185,5.666,3.509,8.764,5.165l5.634,3.011l-4.122,2.504c-2.267,1.377-5.364,3.495-6.884,4.704
	C211.964,106.588,212.115,106.589,206.121,102.873L206.121,102.873z"/>
<rect x="12.339" y="203.766" transform="matrix(0.2133 0.977 -0.977 0.2133 240.1386 129.4146)" fill="#FFFFFF" width="54.745" height="20.104"/>
<path fill="#011375" d="M170.739,299.243c-2.878-0.853-11.531-3.493-19.229-5.867c-7.698-2.376-20.767-6.398-29.042-8.939
	c-20.475-6.287-35.954-11.045-54.234-16.67c-32.512-10.004-35.83-11.017-40.588-12.389c-2.694-0.776-5.254-1.776-5.69-2.22
	c-0.838-0.854-4.775-12.3-4.354-12.655c0.136-0.114,3.65-1.084,7.809-2.154l7.561-1.946l3.489,3.563
	C47.453,251.195,63,256.679,78.568,254.82l6.633-0.793l21.608,9.034c40.183,16.797,43.983,18.32,54.472,21.833
	c5.759,1.928,10.979,3.506,11.083,3.506l0.14-35.827l1.86,1.463c1.023,0.806,2.519,1.464,3.325,1.464
	c1.443,0,1.464,0.225,1.464,16.45c0,9.047-0.052,16.732,0.058,16.732c1.451,0,25.691-9.027,35.281-13.035
	c46.256-19.326,59.243-24.732,62.75-26.124l3.964-1.574l4.082,2.445c2.246,1.345,4.59,2.896,5.211,3.447
	c1.793,1.592,5.389,2.374,7.399,1.608c0.984-0.374,3.246-1.966,5.026-3.537c3.603-3.178,8.13-5.664,14.429-7.924
	c3.148-1.13,4.452-2.017,5.249-3.571c0.581-1.138,1.121-2.184,1.2-2.326c0.327-0.597,10.004,2.225,10.004,2.918
	c0,0.416-0.852,3.378-1.896,6.581l-1.896,5.823l-7.726,2.4c-4.25,1.319-11.506,3.537-16.125,4.929
	c-4.618,1.39-12.964,3.947-18.545,5.684c-14.116,4.388-71.848,22.132-95.172,29.249c-3.271,0.999-8.317,2.559-11.21,3.467
	l-5.265,1.651L170.739,299.243L170.739,299.243z M112.596,249.652c-4.834-1.989-7.334-3.738-10.754-7.524
	c-2.33-2.579-2.729-2.786-3.325-1.721c-1.169,2.09-9.021,6.676-14.159,8.271c-3.797,1.178-6.614,1.521-12.275,1.492
	c-8.597-0.044-15.596-1.984-22.998-6.377c-5.593-3.319-12.646-10.732-15.052-15.819c-2.496-5.276-4.128-13.262-3.602-17.623
	c0.232-1.926,0.453-3.815,0.491-4.2c0.26-2.622,3.203-9.146,5.941-13.176c8.34-12.266,21.429-18.078,40.818-18.126
	c11.955-0.03,26.014,3.242,31.089,7.236l1.814,1.427l-3.847,4.319c-2.116,2.375-5.306,6.918-7.089,10.094
	c-1.783,3.177-3.647,5.775-4.145,5.775c-1.214,0-4.32-3.776-5.682-6.91c-0.607-1.396-1.212-4.874-1.345-7.727
	c-0.132-2.852-0.584-5.529-1.004-5.95c-0.444-0.443-3.457-0.755-7.202-0.743c-14.148,0.044-23.194,6.418-26.771,18.863
	c-4.609,16.039,4.089,30.279,22.212,36.365c4.36,1.465,6.587,1.786,11.89,1.719c3.589-0.045,7.47-0.283,8.625-0.529
	c2.047-0.437,2.109-0.572,2.49-5.464c0.517-6.634,3.033-10.857,8.382-14.071c5.423-3.258,9.833-4.48,17.565-4.87l6.744-0.339
	l0.411-2.53c0.226-1.392,0.182-2.742-0.096-3.001c-0.279-0.259-2.862-1.129-5.742-1.934l-5.235-1.463l-3.764,2.5
	c-4.639,3.081-8.495,4.486-12.271,4.474c-6.732-0.021-7.809-1.655-2.711-4.113c4.349-2.097,9.714-5.615,16.62-10.903l5.599-4.285
	l3.149,0.941c1.732,0.519,7.093,1.967,11.914,3.218c4.821,1.252,9.151,2.514,9.623,2.806c0.64,0.396,0.857,5.028,0.857,18.281
	v17.752l2.449,1.514c1.347,0.833,2.45,1.906,2.45,2.385c0,0.643-6.197,9.482-8.05,11.484c-0.112,0.121-2.684-1.028-5.716-2.553
	l-5.513-2.773l-4.181,1.704c-4.611,1.877-11.359,3.763-13.38,3.737C117.104,251.274,114.754,250.54,112.596,249.652L112.596,249.652
	z M130.026,238.561c0.563-0.563,0.84-3.687,0.84-9.45v-8.61l-1.925,0.004c-3.445,0.007-6.861,1.345-8.917,3.491
	c-1.649,1.722-2.07,2.864-2.318,6.291c-0.292,4.026-0.208,4.282,2.16,6.65c2.146,2.147,2.902,2.464,5.891,2.464
	C127.644,239.4,129.565,239.022,130.026,238.561L130.026,238.561z M175.758,249.193c-4.921-3.307-9.248-4.403-15.977-4.05
	l-5.912,0.31l0.444-1.801c0.649-2.639,4.337-6.147,8.714-8.29c5.331-2.608,12.03-2.578,17.833,0.079
	c5.287,2.421,5.99,1.902,5.99-4.418v-4.706l-9.973-0.456c-5.485-0.251-11.929-0.457-14.321-0.458
	c-3.471-0.002-4.485-0.257-5.023-1.263c-0.371-0.694-0.776-6.379-0.899-12.633c-0.216-10.909-0.168-11.381,1.174-11.624
	c8.54-1.544,12.952-2.781,17.756-4.979l5.687-2.6l4.375,2.345c3.919,2.101,5.081,2.374,11.196,2.628
	c4.819,0.201,6.822,0.541,6.822,1.155c0,1.696-5.617,7.223-8.561,8.423c-5.619,2.29-15.587,1.642-19.273-1.256
	c-1.393-1.093-1.632-0.342-1.775,5.551l-0.133,5.499L188.25,217c7.89,0.192,14.749,0.611,15.241,0.93
	c0.669,0.433,0.876,3.196,0.816,10.851c-0.044,5.648,0.023,10.711,0.153,11.25c0.167,0.7-1.065,1.235-4.315,1.875
	c-6.432,1.264-11.89,3.302-16.215,6.054c-2.051,1.304-4.056,2.566-4.456,2.807C179.074,251.005,177.401,250.297,175.758,249.193
	L175.758,249.193z M223.939,249.468c-1.349-0.97-5.076-3.018-8.284-4.551c-4.851-2.317-5.736-2.989-5.249-3.978
	c0.323-0.654,0.674-10.384,0.781-21.62l0.195-20.432l-2.645-0.219c-2.583-0.214-2.645-0.284-2.645-3.019
	c0-2.745,0.054-2.805,2.706-3.022l2.704-0.222l-0.291-4.01l-0.288-4.011l9.376-1.938c5.158-1.066,9.513-1.805,9.676-1.64
	c0.165,0.164,0.014,1.05-0.334,1.971c-0.347,0.92-0.592,3.404-0.544,5.522l0.09,3.85l4.41,0.209l4.413,0.209l-0.214,2.941
	l-0.213,2.94l-4.199,0.35l-4.197,0.35l-0.188,18.353l-0.188,18.351l1.786,1.171c1.679,1.101,1.93,1.093,4.176-0.117
	c2.322-1.25,2.43-1.25,3.823,0.012c1.481,1.341,1.934,3.183,0.782,3.183c-0.36,0-3.315,2.52-6.568,5.6
	c-3.252,3.08-6.027,5.585-6.169,5.566C226.502,251.247,225.285,250.438,223.939,249.468L223.939,249.468z M251.93,248.429
	c-2.116-1.485-5.187-3.222-6.821-3.859c-2.894-1.128-3.967-3.072-2.274-4.119c1.05-0.649,0.942-57.851-0.115-60.17
	c-0.446-0.981-0.684-1.916-0.523-2.075c0.159-0.159,4.067-1.092,8.686-2.071c4.619-0.979,9.111-1.989,9.986-2.243l1.589-0.461
	l-0.044,30.974c-0.022,17.036,0.102,31.116,0.276,31.291c0.174,0.175,1.098-0.193,2.052-0.819c1.65-1.081,1.833-1.052,3.735,0.604
	l1.999,1.742l-6.299,6.387c-3.462,3.514-6.77,6.643-7.348,6.954C256.115,250.945,254.543,250.261,251.93,248.429L251.93,248.429z
	 M291.201,248.443c-5.679-3.592-10.048-5.761-14.615-7.257l-3.687-1.207l0.188-16.839l0.188-16.84l4.548-2.402
	c2.503-1.32,7.439-4.27,10.97-6.552c3.53-2.283,6.916-4.341,7.521-4.573c0.699-0.268,2.963,1,6.177,3.457
	c2.792,2.133,7.83,5.199,11.197,6.812l6.123,2.933v7.963c0,4.38-0.136,7.963-0.303,7.963s-2.608,0.495-5.424,1.101
	c-6.583,1.415-6.876,1.476-13.517,2.792c-9.99,1.981-10.849,2.298-10.839,4.009c0.006,1.226,1.237,2.196,5.896,4.654l5.886,3.107
	l2.78-1.927c3.289-2.28,12.425-5.6,13.877-5.043c0.751,0.289,0.962,1.35,0.807,4.051l-0.214,3.661l-5.058,1.864
	c-5.215,1.922-11.121,5.33-14.186,8.187C296.261,251.392,295.867,251.395,291.201,248.443L291.201,248.443z M297.416,218.15
	c4.502-0.854,4.552-0.889,4.759-3.312c0.197-2.325-0.035-2.608-4.661-5.679c-4.494-2.983-4.98-3.152-6.33-2.206
	c-1.259,0.88-1.464,1.744-1.464,6.119c0,2.801,0.209,5.304,0.466,5.561C290.807,219.256,292.021,219.175,297.416,218.15
	L297.416,218.15z M322.052,201.862c-1.271-0.862-2.674-1.689-3.122-1.84c-0.596-0.198-0.41-2.52,0.692-8.622
	c0.831-4.592,3.108-17.147,5.064-27.897c1.955-10.752,3.301-19.804,2.988-20.115c-0.311-0.312-3.546-1.773-7.188-3.248l-6.625-2.68
	l-0.221-2.668c-0.209-2.488-0.113-2.638,1.397-2.235c15.72,4.194,25.149,6.473,25.357,6.125c0.141-0.237,0.798-3.091,1.457-6.341
	c0.659-3.25,1.332-6.259,1.497-6.688c0.166-0.435-2.13-1.782-5.19-3.046l-5.488-2.267l1.316-7.412
	c0.828-4.67,1.069-7.658,0.651-8.076c-0.364-0.365-6.607-4.061-13.869-8.213l-13.206-7.55l-0.193,10.406
	c-0.105,5.723-0.408,10.405-0.669,10.405c-0.263,0-5.605-2.284-11.874-5.075l-11.396-5.075l-0.01-12.95l-0.01-12.95l-1.92-1.121
	c-1.056-0.617-8.588-5.262-16.738-10.325c-8.152-5.063-15-9.205-15.222-9.205c-0.221,0-0.401,7.109-0.401,15.797
	c0,15.444-0.03,15.787-1.391,15.356c-0.765-0.243-6.354-2.6-12.421-5.238l-11.031-4.795l-0.186-18.566l-0.188-18.566l-4.012-2.391
	c-28.401-16.924-40.761-23.867-40.761-23.781c-0.024,13.698,0.01,3.064,0.01,46.939v46.904l-6.492,0.092
	c-0.18-19.388-0.468-38.772-0.506-58.163c0-19.574-0.296-34.963-0.294-35.645c0.001-0.355-28.063,16.237-39.944,23.412l-4.199,2.535
	l-0.35,18.636l-0.35,18.635l-11.868,5.169c-6.527,2.843-12.039,5.17-12.247,5.17c-0.208,0-0.288-7.087-0.178-15.75
	c0.131-10.318-0.044-15.751-0.509-15.751c-0.644,0-21.693,12.823-30.657,18.676l-3.674,2.399v7.222v7.223l-5.423,0.318
	c-3.273,0.192-6.524,0.843-8.2,1.642c-3.688,1.758-7.605,5.765-8.557,8.752c-0.686,2.152-0.778,1.708-0.841-4.058
	c-0.04-3.562-0.246-6.475-0.459-6.475s-6.693,3.662-14.399,8.138c-12.272,7.127-13.968,8.322-13.655,9.625
	c0.197,0.818,0.7,3.535,1.12,6.038c0.419,2.502,0.908,5.218,1.087,6.034c0.278,1.273-0.421,1.81-4.914,3.77
	c-3.432,1.497-5.235,2.675-5.229,3.416c0.009,0.973,0.543,3.541,2.471,11.879c0.304,1.313,0.695,1.557,1.924,1.198
	c5.687-1.661,30.869-8.096,31.683-8.096c0.667,0,1,0.777,1,2.333c0,2.012-0.313,2.435-2.274,3.078
	c-6.627,2.173-19.131,6.716-19.537,7.099c-0.257,0.243,0.77,7.214,2.28,15.491s2.915,15.994,3.12,17.15
	c0.206,1.154,0.94,5.014,1.631,8.575c1.177,6.061,1.183,6.599,0.092,8.4c-0.641,1.058-1.738,3.428-2.438,5.265
	c-0.699,1.837-1.383,3.229-1.52,3.093c-0.201-0.201-1.954-9.154-4.206-21.483c-0.176-0.962-1.487-8.156-2.913-15.986l-2.592-14.235
	l-5.941-2.214l-5.941-2.214L3.088,135.1c-1.191-5.583-2.373-11.261-2.626-12.619L0,120.014l4.726-2.016
	c2.599-1.109,4.998-2.254,5.33-2.546c0.334-0.293,0.085-3.572-0.558-7.348c-0.746-4.378-0.92-7.06-0.487-7.493
	c0.371-0.372,8.468-5.149,17.993-10.617l17.318-9.942l8.107,3.022c4.459,1.662,8.187,3.023,8.283,3.024
	c0.096,0.001,0.175-3.72,0.175-8.27v-8.271l9.972-6.193c5.484-3.407,14.961-9.286,21.059-13.066l11.087-6.872l8.247,6.287
	c4.535,3.458,8.456,6.287,8.711,6.287s0.423-5.263,0.372-11.696l-0.094-11.696l10.036-5.899
	c5.521-3.245,17.625-10.415,26.899-15.935s17.326-10.214,17.894-10.432c0.596-0.229,8.095,3.792,17.776,9.532
	c9.212,5.461,21.629,12.807,27.595,16.326l10.847,6.398l0.351,11.744l0.348,11.745l8.258-6.308l8.258-6.309l6.088,3.698
	c3.349,2.034,12.781,7.861,20.959,12.95l14.871,9.253v8.363c0,4.601,0.098,8.365,0.215,8.365c0.119,0,3.946-1.38,8.507-3.068
	l8.291-3.068l3.564,2.129c1.962,1.171,10.107,5.899,18.104,10.507c11.089,6.39,14.459,8.647,14.197,9.514
	c-0.188,0.624-0.529,2.238-0.758,3.585c-0.228,1.348-0.703,3.71-1.058,5.25c-0.932,4.048-0.851,4.518,0.896,5.191
	c0.866,0.333,3.363,1.4,5.548,2.372l3.975,1.766l-0.966,3.736c-0.529,2.055-1.771,7.65-2.754,12.434
	c-0.985,4.784-1.867,8.767-1.959,8.85c-0.094,0.083-2.623,1.018-5.621,2.078c-5.711,2.018-6.353,2.625-6.991,6.624
	c-0.216,1.348-2.018,11.427-4.005,22.4c-1.985,10.973-3.749,20.739-3.919,21.706c-0.169,0.967-0.537,2.56-0.816,3.54l-0.51,1.783
	L322.052,201.862L322.052,201.862z M168.655,184.342c0-0.254,0.741-1.435,1.646-2.626c5.133-6.756,5.748-10.56,5.494-34.016
	l-0.208-19.25l-2.529-1.925c-3.14-2.391-4.418-2.411-7.148-0.112l-2.153,1.812v15.012c0,12.767,0.173,15.276,1.154,16.773
	c1.315,2.009,1.54,1.709-4.878,6.527l-4.775,3.584l-5.879-3.913c-5.771-3.84-5.859-3.942-4.813-5.54
	c0.922-1.407,1.037-5.83,0.856-32.878l-0.209-31.252l1.75-0.384c0.962-0.211,5.213-1.23,9.447-2.264l7.698-1.879l-0.245,12.546
	c-0.279,14.296-0.771,13.564,6.032,8.966c7.325-4.951,6.463-4.982,12.308,0.439c2.845,2.639,6.551,5.669,8.235,6.735l3.061,1.937
	l-0.213,21.359c-0.193,19.326-0.347,21.715-1.611,25.1c-1.681,4.49-6.73,10.322-10.692,12.349
	C176.448,183.761,168.655,185.593,168.655,184.342L168.655,184.342z M47.172,168.597c0.653-4.668,3.521-8.771,8.286-11.852
	c2.335-1.511,4.512-2.745,4.837-2.745c0.326,0,0.591-11.019,0.591-24.486v-24.487l-1.748-0.439c-2.652-0.666-3.851,0.109-3.851,2.49
	c0,2.367-0.982,2.687-3.288,1.071c-3.624-2.539-2.286-8.521,2.676-11.96c3.515-2.437,8.218-2.895,17.533-1.707l6.872,0.875v29.963
	c0,23.332,0.194,30.034,0.875,30.284c0.481,0.177,2.685-0.628,4.898-1.789l4.023-2.11v-21.943v-21.943l-2.449-1.023
	c-1.347-0.563-2.449-1.343-2.449-1.732c0-0.654,4.659-6.773,7.865-10.33l1.367-1.517l5.518,2.669c3.035,1.467,6.467,3,7.627,3.404
	c1.917,0.668,2.046,0.902,1.413,2.568c-0.409,1.075-0.697,10.904-0.697,23.769v21.935l4.119,3.569
	c6.76,5.858,6.378,7.031,6.378-19.555v-23.124l-2.448-1.445l-2.448-1.445l1.224-2.079c0.673-1.143,2.724-3.934,4.557-6.203
	l3.333-4.124l2.495,1.473c1.373,0.81,4.555,2.307,7.072,3.327l4.576,1.854l-0.257,14.319c-0.422,23.518-0.294,40.103,0.326,42.072
	c0.552,1.756,0.432,1.88-2.256,2.334c-7.346,1.242-20.814,6.536-26.077,10.251c-1.021,0.722-2.024,1.313-2.229,1.313
	s-2.675-1.832-5.491-4.069c-2.815-2.239-5.974-4.63-7.02-5.315l-1.9-1.245l-10.187,5.27l-10.187,5.268l-3.917-1.793
	c-5.064-2.319-9.822-1.966-15.321,1.138c-2.092,1.181-3.994,2.147-4.226,2.147S46.949,170.194,47.172,168.597L47.172,168.597z
	 M207.493,167.239c-2.31-1.571-4.671-3.124-5.249-3.451c-0.92-0.521-0.897-0.851,0.176-2.674c1.071-1.819,1.225-4.108,1.225-18.233
	v-16.153l-2.8-1.429c-1.539-0.786-2.798-1.768-2.798-2.183c0-0.783,7.561-11.817,8.099-11.817c0.167,0,3.275,1.417,6.909,3.15
	c3.633,1.732,6.904,3.15,7.271,3.15c1.364,0,1.549,2.792,1.493,22.56c-0.044,14.79,0.167,20.524,0.78,21.262
	c0.462,0.557,0.715,1.13,0.566,1.276c-0.546,0.521-10.979,7.402-11.223,7.4C211.805,170.098,209.804,168.812,207.493,167.239
	L207.493,167.239z M243.884,168.611c-1.155-0.763-4.854-2.791-8.225-4.507c-3.367-1.715-6.123-3.367-6.123-3.672
	c0-0.304,0.395-0.946,0.877-1.426c0.659-0.659,0.874-5.825,0.874-20.966V117.95l-2.662-0.219l-2.663-0.22l0.214-2.93
	c0.198-2.743,0.358-2.945,2.486-3.15c2.259-0.218,2.274-0.245,2.274-4.012c0-4.346-1.161-3.687,11.073-6.279
	c4.11-0.871,7.561-1.503,7.67-1.404c0.109,0.098-0.135,1.669-0.543,3.491c-0.408,1.822-0.544,4.37-0.303,5.661
	c0.432,2.301,0.518,2.352,4.393,2.555l3.952,0.208l0.216,2.975l0.215,2.975h-4.239h-4.239v18.915v18.916l1.804,0.821
	c1.39,0.634,2.073,0.629,2.975-0.02c0.644-0.462,1.575-1.035,2.071-1.271c1.079-0.517,3.783,1.755,3.498,2.938
	c-0.177,0.739-12.812,12.279-13.301,12.15C246.07,170.021,245.038,169.374,243.884,168.611L243.884,168.611z M280.889,167.994
	c-4.243-3.009-11.938-6.808-15.79-7.794l-3.372-0.864v-16.95v-16.951l5.074-2.577c2.792-1.417,8.128-4.598,11.861-7.068
	c3.734-2.469,7.081-4.49,7.438-4.49s1.081,0.527,1.609,1.171c1.577,1.921,12.775,9.017,16.987,10.763l3.917,1.625v7.894v7.894
	l-2.623,0.674c-1.443,0.37-4.356,1.017-6.474,1.437c-2.116,0.42-4.479,0.896-5.249,1.056c-0.771,0.162-4.504,0.945-8.299,1.74
	c-3.796,0.796-7.043,1.447-7.221,1.447c-0.175,0-0.219,0.803-0.098,1.783c0.18,1.436,1.334,2.376,5.937,4.831l5.713,3.047
	l2.596-1.764c2.688-1.827,9.011-4.562,12.428-5.374l1.959-0.466l-0.209,4.278l-0.209,4.279l-3.498,1.236
	c-5.519,1.949-10.261,4.577-14.519,8.046c-2.162,1.763-4.189,3.19-4.504,3.174C284.029,170.052,282.474,169.118,280.889,167.994
	L280.889,167.994z M286.688,137.128l4.433-0.771v-2.6c0-2.44-0.285-2.781-4.628-5.551c-6.529-4.163-7.271-3.777-7.271,3.791
	C279.222,138.774,278.822,138.499,286.688,137.128L286.688,137.128z"/>
<path fill="#011375" d="M331.726,230.751c0,0.747-0.186,1.443-0.56,2.089c-0.375,0.646-0.883,1.154-1.527,1.526
	c-0.646,0.371-1.343,0.558-2.089,0.558c-0.745,0-1.438-0.187-2.083-0.558c-0.646-0.372-1.155-0.88-1.529-1.526
	c-0.372-0.646-0.56-1.342-0.56-2.089c0-0.744,0.188-1.438,0.56-2.086c0.374-0.647,0.884-1.157,1.529-1.529
	c0.646-0.371,1.338-0.557,2.083-0.557c0.746,0,1.443,0.186,2.089,0.557c0.645,0.372,1.152,0.882,1.527,1.529
	C331.54,229.313,331.726,230.007,331.726,230.751L331.726,230.751L331.726,230.751z M330.917,230.751
	c0-0.93-0.329-1.724-0.986-2.381c-0.659-0.658-1.451-0.987-2.381-0.987c-0.931,0-1.725,0.329-2.382,0.987
	c-0.657,0.657-0.985,1.451-0.985,2.381s0.328,1.724,0.985,2.382s1.451,0.987,2.382,0.987c0.93,0,1.722-0.329,2.381-0.987
	C330.588,232.475,330.917,231.681,330.917,230.751L330.917,230.751L330.917,230.751z M325.658,228.52h1.995
	c0.565,0,0.974,0.114,1.227,0.342c0.255,0.229,0.38,0.533,0.38,0.916c0,0.299-0.096,0.559-0.288,0.777
	c-0.193,0.219-0.498,0.377-0.914,0.475c0.171,0.066,0.296,0.136,0.378,0.208c0.111,0.103,0.231,0.253,0.354,0.454
	c0.008,0.015,0.249,0.445,0.721,1.29h-1.31c-0.429-0.849-0.713-1.356-0.86-1.521c-0.146-0.167-0.291-0.249-0.437-0.249
	c-0.034,0-0.08,0.005-0.138,0.017v1.754h-1.108V228.52L325.658,228.52z M326.767,230.412h0.482c0.32,0,0.546-0.053,0.677-0.156
	c0.132-0.104,0.197-0.237,0.197-0.402c0-0.163-0.062-0.298-0.189-0.401c-0.125-0.104-0.338-0.155-0.641-0.155h-0.526V230.412
	L326.767,230.412z"/>
</svg>
